<svg width="36" height="36" viewBox="0 0 36 36" fill="none" xmlns="http://www.w3.org/2000/svg">
<g id="BellFill" clip-path="url(#clip0_98_171)">
<path id="Vector" d="M19.6791 2.85409L19.6338 3.3046L20.0777 3.39415C24.8472 4.35641 28.4375 8.57374 28.4375 13.625C28.4375 14.8654 28.7156 18.1814 29.4052 21.4644C29.7504 23.1076 30.2025 24.7618 30.7832 26.1525C31.1438 27.0159 31.5669 27.8099 32.0672 28.4375H3.93276C4.4331 27.8099 4.85616 27.0159 5.21675 26.1525C5.79753 24.7618 6.24964 23.1076 6.59479 21.4644C7.28438 18.1814 7.5625 14.8654 7.5625 13.625V13.6249C7.56202 11.2169 8.39415 8.88279 9.91785 7.0182C11.4416 5.15361 13.5631 3.87321 15.9229 3.39402L16.3661 3.30403L16.3209 2.85409C16.2974 2.61944 16.3233 2.38247 16.3969 2.15845C16.4706 1.93443 16.5904 1.72834 16.7486 1.55346L16.3842 1.22381L16.7486 1.55346C16.9068 1.37858 17.0999 1.2388 17.3154 1.14314C17.531 1.04747 17.7642 0.998047 18 0.998047C18.2358 0.998047 18.469 1.04747 18.6846 1.14314C18.9001 1.2388 19.0932 1.37858 19.2514 1.55346C19.4096 1.72834 19.5294 1.93443 19.6031 2.15845C19.6767 2.38247 19.7026 2.61944 19.6791 2.85409ZM20.74 33.865C20.0133 34.5917 19.0277 35 18 35C16.9723 35 15.9867 34.5917 15.26 33.865C14.6521 33.2572 14.2671 32.4682 14.1574 31.625H21.8426C21.7329 32.4682 21.3479 33.2572 20.74 33.865Z" stroke="#FFE156"/>
</g>
<defs>
<clipPath id="clip0_98_171">
<rect width="35" height="35" fill="white" transform="translate(0.5 0.5)"/>
</clipPath>
</defs>
</svg>
