<svg width="36" height="36" viewBox="0 0 36 36" fill="none" xmlns="http://www.w3.org/2000/svg">
<g id="HouseDoorFill">
<path id="Vector" d="M14.7188 32.2188V24.5516C14.7188 24.0156 15.2656 23.4688 15.8125 23.4688H20.1875C20.7344 23.4688 21.2813 24.0156 21.2813 24.5625V32.2188C21.2813 32.5088 21.3965 32.787 21.6016 32.9922C21.8067 33.1973 22.0849 33.3125 22.375 33.3125H31.125C31.4151 33.3125 31.6933 33.1973 31.8984 32.9922C32.1035 32.787 32.2188 32.5088 32.2188 32.2188V16.9063C32.219 16.7625 32.1909 16.6202 32.1361 16.4873C32.0813 16.3544 32.0009 16.2336 31.8994 16.1319L28.9375 13.1722V5.96875C28.9375 5.67867 28.8223 5.40047 28.6172 5.19535C28.412 4.99024 28.1338 4.875 27.8438 4.875H25.6563C25.3662 4.875 25.088 4.99024 24.8829 5.19535C24.6777 5.40047 24.5625 5.67867 24.5625 5.96875V8.79719L18.7744 3.00688C18.6728 2.90502 18.5521 2.82421 18.4192 2.76907C18.2863 2.71393 18.1439 2.68555 18 2.68555C17.8561 2.68555 17.7137 2.71393 17.5808 2.76907C17.4479 2.82421 17.3272 2.90502 17.2256 3.00688L4.10063 16.1319C3.99912 16.2336 3.91867 16.3544 3.86387 16.4873C3.80907 16.6202 3.781 16.7625 3.78125 16.9063V32.2188C3.78125 32.5088 3.89649 32.787 4.1016 32.9922C4.30672 33.1973 4.58492 33.3125 4.875 33.3125H13.625C13.9151 33.3125 14.1933 33.1973 14.3984 32.9922C14.6035 32.787 14.7188 32.5088 14.7188 32.2188Z" fill="#FFE156"/>
</g>
</svg>
