<svg width="226" height="301" viewBox="0 0 226 301" fill="none" xmlns="http://www.w3.org/2000/svg">
<mask id="mask0_62_106" style="mask-type:luminance" maskUnits="userSpaceOnUse" x="0" y="-32" width="226" height="333">
<path d="M0 -32H226V300.824H0V-32Z" fill="white"/>
</mask>
<g mask="url(#mask0_62_106)">
<path fill-rule="evenodd" clip-rule="evenodd" d="M112.765 -30.9485C112.444 -30.5718 112.169 -28.7512 111.918 -25.424C110.654 -8.63094 107.468 12.2191 103.011 32.8966C100.932 42.5408 100.908 42.6585 98.711 53.5662C93.4769 79.5719 92.1115 83.6289 82.0827 102.823C80.8036 105.272 78.0571 110.6 75.9776 114.673C71.9441 122.559 70.924 124.434 66.7257 131.646C63.4456 137.273 61.931 139.964 59.3022 144.845C56.5792 149.883 54.4212 153.791 52.0906 157.895C48.9282 163.482 47.194 166.747 44.5024 172.232C40.1393 181.099 39.2918 182.598 34.8189 189.355C33.2337 191.764 31.6957 194.118 31.4132 194.604C31.0601 195.193 30.8246 195.452 30.6677 195.405C30.5421 195.366 28.6353 194.549 26.4223 193.592C21.0548 191.269 17.8453 190.39 13.3881 190.029C11.4969 189.872 8.79748 189.488 8.66408 189.355C8.57776 189.268 8.49144 189.496 12.674 178.714C18.8969 162.698 20.1289 159.151 25.308 142.585C27.7014 134.934 28.3763 132.839 31.578 123.116C34.8738 113.103 36.0901 109.344 37.5183 104.754C40.3669 95.6038 42.7681 87.4348 44.1649 82.1772C44.5494 80.7411 45.0281 79.0618 45.2243 78.4497C46.6211 74.1651 46.8173 68.3346 45.4911 70.5162C45.1301 71.0969 43.082 76.9744 41.3242 82.4597C37.5105 94.2933 35.2034 101.34 30.0635 116.705C26.9952 125.894 23.0951 137.916 21.3844 143.488C16.1268 160.618 13.906 167.029 8.53068 180.676C3.28089 194.024 2.26075 197.272 1.41325 203.464C0.0556757 213.304 0.769774 219.488 4.20686 227.618C6.91415 234.029 7.40068 241.884 5.55658 249.574C5.18776 251.136 4.74047 253.27 4.56783 254.306C4.39519 255.342 4.08915 257.139 3.88512 258.3C3.17102 262.373 3.16318 262.452 3.33581 263.048C3.85373 264.774 5.23484 264.421 6.30207 262.302C6.78075 261.345 7.25943 260.772 9.45665 258.528C12.7446 255.185 13.5451 254 14.7535 250.712C15.2244 249.441 15.3578 249.205 15.4833 249.433C17.0057 252.211 26.9167 265.881 32.2528 272.559C37.126 278.656 38.1618 279.645 46.5348 286.182C49.195 288.261 50.3328 289.258 51.6669 290.702C55.1589 294.468 56.3124 295.355 57.772 295.339C59.4513 295.324 59.9457 293.283 58.698 291.525C58.4312 291.157 58.4155 291.047 58.5803 290.741C58.9177 290.121 58.643 289.344 56.7911 285.617C54.0446 280.084 51.8709 277 46.9428 271.664C45.9149 270.558 44.6828 269.216 44.1963 268.69L43.3174 267.741L45.2557 268.698C50.8978 271.507 57.2384 273.085 65.0699 273.618C78.2219 274.513 86.0769 273.72 87.9132 271.303C89.4434 269.302 88.5724 268.282 85.3628 268.313C84.1151 268.321 83.6757 268.258 82.7968 267.945C81.4 267.442 76.9899 265.567 76.9899 265.473C76.9899 265.426 78.936 265.441 81.3294 265.504C89.5219 265.716 90.2988 265.645 91.1855 264.617C92.441 263.173 91.3895 262.224 88.3056 262.004C86.9323 261.91 86.587 261.824 85.7395 261.392C85.1981 261.117 84.1151 260.631 83.3226 260.317L81.8944 259.736L82.8753 259.76C84.7665 259.807 84.9548 259.768 85.5119 259.25C87.0265 257.845 85.3315 256.08 81.3294 254.879C80.2543 254.565 80.0503 254.432 78.9124 253.349C75.8834 250.477 72.823 248.844 64.0106 245.407C51.0862 240.354 49.3441 238.933 42.0305 227.406C36.8513 219.245 34.3324 214.45 31.8683 208.078L31.2484 206.469L31.421 204.853C31.8997 200.294 32.7786 198.191 36.3569 193.027C41.3085 185.878 42.6661 183.595 46.8879 175.324C49.8463 169.532 51.8003 165.915 55.716 159.025C57.5994 155.706 60.3851 150.715 61.8997 147.937C65.1406 142.004 67.0396 138.622 70.2256 133.153C72.4542 129.323 74.1649 126.286 75.6794 123.477C76.4876 121.97 76.0874 122.127 79.9012 121.821C93.1787 120.77 107.696 125.321 118.478 133.914C135.499 147.482 143.158 178.298 137.037 208.588C134.384 221.732 127.691 234.092 117.96 243.83C111.941 249.849 107.531 252.203 96.8747 255.067C95.5564 255.42 95.0306 256.362 95.886 256.833C96.7256 257.288 102.823 257.202 104.761 256.699L106.205 256.323L106.15 257.084C105.546 264.719 103.09 274.662 99.4251 284.33C98.452 286.896 97.9263 288.175 96.1842 292.247C93.7829 297.89 93.5554 299.318 95.0463 299.639C96.5138 299.953 98.1695 297.686 100.673 291.949C101.104 290.953 101.889 289.226 102.407 288.104C107.037 278.185 110.623 264.343 110.631 256.346V254.534L111.73 253.969C114.892 252.344 118.149 249.833 121.68 246.286C124.097 243.861 124.214 243.767 124.293 244.16C124.913 247.032 127.126 251.473 129.472 254.534C136.864 264.162 151.876 268.031 158.35 261.965C160.131 260.294 159.072 259.407 155.847 259.87C154.144 260.113 148.509 259.187 145.371 258.136C138.63 255.891 133.427 251.583 130.555 245.862C129.817 244.403 129.825 244.481 130.484 244.128C132.485 243.045 134.196 239.797 137.947 229.917C138.795 227.688 140.113 224.235 140.89 222.242C141.659 220.257 143.079 216.522 144.052 213.956C146.202 208.282 147.481 205.277 150.087 199.76C155.541 188.256 159.252 174.194 162.14 154.121C162.933 148.596 163.702 144.076 164.298 141.345L164.573 140.105L168.52 146.022C183.932 169.093 191.238 186.773 193.545 206.556C195.083 219.747 191.253 236.485 184.026 248.193C183.053 249.77 181.688 252.132 180.997 253.443C179.961 255.413 179.428 256.197 177.976 257.971C174.319 262.42 171.133 267.458 171.133 268.8C171.133 269.059 171.007 269.451 170.858 269.671C170.144 270.707 170.066 271.931 170.694 272.268C171.4 272.645 169.195 274.827 166.244 276.671C164.094 278.013 162.101 279.81 161.708 280.759C161.528 281.183 161.308 281.379 160.743 281.622C159.7 282.07 158.852 282.98 158.852 283.647C158.852 285.977 164.4 286.197 169.603 284.078C169.838 283.976 168.575 285.758 167.672 286.778C167.327 287.162 166.393 288.002 165.585 288.638C163.254 290.482 162.634 291.29 162.705 292.389C162.736 292.907 162.642 293.189 162.266 293.762C161.63 294.719 161.646 295.096 162.352 295.802C163.78 297.223 167.131 296.242 172.192 292.914C173.228 292.232 174.774 291.29 175.622 290.827C180.126 288.379 183.202 285.35 188.42 278.224C189.566 276.655 191.347 274.309 192.368 273.022C198.622 265.127 199.909 262.993 201.219 258.395C202.734 253.066 203.032 249.786 203.573 232.35C204.021 218.036 205.418 204.327 207.662 192.148C209.153 184.066 210.299 179.93 214.662 166.872C221.622 146.046 224.745 131.756 225.53 117.082C225.585 116.085 225.648 115.128 225.679 114.947C225.899 113.519 226.056 92.1353 225.891 86.7207C225.663 79.1481 225.224 75.3344 223.262 63.6734C220.602 47.9162 220.108 43.7257 219.723 33.5714C219.574 29.7969 219.535 29.4987 219.119 29.4987C217.895 29.4987 217.314 34.0972 217.596 41.5521C217.895 49.2031 218.381 53.676 220.382 66.7652C222.14 78.2614 222.211 79.2815 222.195 93.5478C222.187 112.946 221.74 119.781 219.699 132.242C217.683 144.586 216.317 149.632 209.773 168.928C205.504 181.531 203.699 189.896 202.075 204.594C201 214.372 200.725 218.915 200.238 234.892L200.081 240.291L199.022 241.601C197.233 243.838 195.813 246.098 194.008 249.59C192.054 253.38 191.52 254.204 189.958 255.789C187.769 258.018 181.695 262.247 179.208 263.275C178.321 263.636 177.332 264.115 177.011 264.327C176.681 264.547 176.414 264.68 176.414 264.633C176.414 264.256 181.523 257.712 184.23 254.628C192.321 245.384 196.684 235.167 198.606 220.885C200.537 206.603 196.001 184.96 187.518 168.002C185.776 164.526 185.501 164.008 183.908 161.136L182.99 159.48L182.81 156.012C182.708 154.097 182.543 150.942 182.441 148.996C182.245 145.033 182.323 134.636 182.59 131.042C183.492 118.792 184.34 104.801 184.638 97.3145C184.685 96.1531 184.748 94.6307 184.787 93.9245C185.854 74.4712 182.943 56.76 177.411 48.9598L176.924 48.285L177.968 46.3938C182.802 37.6441 185.807 28.5021 185.831 22.4833C185.847 17.9084 184.803 18.1203 183.516 22.9541C180.714 33.4537 175.096 44.126 161.348 65.0859C154.505 75.4992 151.586 80.749 149.577 86.1949C146.155 95.5017 147.23 106.354 152.896 119.608C153.383 120.754 153.783 121.711 153.783 121.727C153.783 121.806 150.008 121.68 147.45 121.523C142.083 121.194 138.465 120.511 127.91 117.835C104.761 111.973 90.338 111.133 80.9213 115.104C80.2543 115.394 79.705 115.567 79.705 115.489C79.705 115.426 82.2397 110.302 85.3472 104.118C96.0115 82.8599 97.0003 79.8858 101.881 54.5471C102.721 50.184 103.953 43.9455 104.612 40.6653C108.049 23.6839 108.936 18.7559 110.545 7.69914C112.797 -7.80698 113.581 -15.6307 113.738 -23.988C113.856 -30.4776 113.644 -32.0078 112.765 -30.9485ZM155.462 -2.13344C155.289 -1.92941 155.078 -0.56399 154.913 1.43705C154.238 9.3706 150.456 16.284 137.853 32.5905C121.178 54.1626 114.507 67.0791 112.718 81.2512C111.839 88.1881 113.338 100.187 115.072 100.187C115.583 100.187 115.637 99.4646 115.535 93.7754C115.167 71.8973 119.114 62.5277 140.482 34.5523C151.499 20.1291 155.274 13.6159 156.82 6.40435C157.22 4.51316 157.322 0.0245495 156.984 -1.0976C156.663 -2.14913 155.909 -2.66705 155.462 -2.13344ZM175.928 51.1178C179.333 56.9012 181.46 67.4636 181.656 79.5876C181.774 87.0895 181.625 89.6713 178.91 126.286C178.243 135.279 178.18 137.076 178.274 144.162C178.329 147.858 178.407 151.084 178.462 151.335C178.525 151.664 178.36 151.492 177.835 150.652C177.434 150.032 175.786 147.552 174.17 145.143C167.311 134.942 165.687 132.494 164.235 130.1C154.685 114.453 150.73 100.194 153.281 90.6129C154.583 85.7084 158.444 78.3869 166.684 65.1801C168.857 61.6959 171.745 56.9954 173.095 54.7354C174.445 52.4676 175.567 50.6235 175.59 50.6235C175.614 50.6235 175.763 50.8432 175.928 51.1178ZM142.169 71.0655C142.012 71.2538 142.036 71.45 142.294 72.1406C142.703 73.1999 142.703 73.3098 142.247 73.5531C141.416 74.0004 141.588 74.5575 142.616 74.7301C143.26 74.84 143.283 74.8635 143.566 75.711C143.966 76.9117 144.46 76.8724 144.641 75.6326L144.751 74.9106H145.637C147.003 74.9106 147.058 74.3299 145.779 73.349L145.01 72.7605L145.119 71.8031C145.245 70.6103 144.719 70.3592 144.233 71.3794L143.974 71.913L143.346 71.3794C142.648 70.783 142.444 70.7281 142.169 71.0655ZM138.206 81.5023C137.884 81.5886 137.845 81.7848 137.688 83.8172C137.57 85.2768 137.539 85.3945 137.264 85.3553C134.612 84.9943 134.33 85.3239 135.946 86.8933L136.809 87.7252L136.244 88.8551C135.287 90.8013 135.64 91.0995 137.735 90.1264L138.763 89.6556L139.273 90.2441C139.556 90.5658 140.042 91.1701 140.348 91.586C141.078 92.559 141.282 92.7238 141.675 92.6218C142.255 92.4649 142.247 92.3707 141.431 89.53L141.141 88.5334L142.028 88.1097C143.33 87.4897 143.895 86.6265 143.181 86.3676C143.165 86.3597 142.546 86.2734 141.808 86.1792L140.466 85.9988L139.791 83.8879C138.967 81.314 138.967 81.3061 138.206 81.5023ZM120.95 87.3171C120.879 87.4191 120.848 87.8664 120.872 88.3058L120.919 89.0984H119.71C117.905 89.0984 117.866 89.53 119.553 90.6914C120.393 91.2721 120.597 91.484 120.542 91.7272C119.883 94.4973 120.063 94.717 121.994 93.5556L122.849 93.0456L123.359 93.4536C124.693 94.513 125.541 95.0074 125.855 94.9054C126.412 94.7327 126.349 94.5679 124.732 91.947C124.693 91.892 125.282 91.3977 126.027 90.8562C126.773 90.3069 127.377 89.7733 127.377 89.6634C127.369 89.0906 127.173 89.0435 125.007 89.1455L122.904 89.2475L122.237 88.2274C121.562 87.2072 121.185 86.9404 120.95 87.3171ZM139.485 97.3694C139.375 97.44 139.054 98.1933 138.763 99.0408C138.473 99.8884 138.081 100.893 137.892 101.269L137.547 101.944L136.119 100.72C133.372 98.3581 132.438 98.0364 131.811 99.237C131.489 99.8648 131.622 100.265 132.729 101.921C133.254 102.706 133.945 103.82 134.251 104.385L134.816 105.421L133.592 106.574C131.316 108.709 131.865 110.051 135.138 110.341L136.331 110.443L136.739 112.106C137.461 115.01 137.68 115.347 138.834 115.347C139.964 115.347 140.286 114.68 140.45 111.989L140.552 110.372L142.679 110.357C146.14 110.349 146.532 110.215 146.54 109.117C146.54 108.285 146.359 108.049 145.261 107.445C144.719 107.147 143.589 106.456 142.75 105.915L141.227 104.926L141.329 103.765C141.384 103.121 141.533 101.984 141.651 101.238C141.902 99.6215 141.926 98.3895 141.706 97.9736C141.408 97.4243 140.003 97.0398 139.485 97.3694ZM12.109 191.913C17.4844 192.344 20.2309 193.019 25.3316 195.146C26.901 195.797 28.5725 196.456 29.0433 196.605C29.5142 196.755 29.8673 196.927 29.828 196.99C29.7888 197.053 29.3651 196.943 28.8864 196.747C28.4077 196.55 26.4537 195.978 24.5469 195.468C22.6478 194.957 20.0033 194.181 18.6771 193.733C15.6638 192.721 13.7098 192.344 10.3591 192.117C8.25602 191.976 7.73811 191.897 7.73811 191.724C7.73811 191.56 7.87936 191.528 8.37373 191.583C8.72686 191.63 10.4062 191.779 12.109 191.913ZM11.4342 193.058C13.6235 193.231 15.8443 193.639 17.092 194.102C17.5471 194.275 17.7119 194.377 17.4687 194.338C15.9306 194.079 13.3489 193.804 11.1281 193.663C7.99707 193.459 7.11818 193.294 7.3379 192.925C7.43207 192.776 8.052 192.8 11.4342 193.058ZM8.11477 194.259C8.44436 194.338 9.97457 194.471 11.5048 194.565C14.7378 194.753 16.4093 194.989 18.9596 195.617C20.9293 196.103 24.2722 197.163 23.4561 197.053C23.1814 197.006 22.0279 196.841 20.8901 196.676C19.7522 196.511 17.5707 196.268 16.0326 196.142C12.6897 195.852 7.25158 194.879 6.87491 194.502C6.53748 194.165 7.1888 194.039 8.11477 194.259ZM11.4342 196.448C12.5955 196.645 14.526 196.88 15.7344 196.974C19.6737 197.257 24.131 197.994 25.873 198.638C26.3125 198.803 26.4773 198.897 26.2419 198.858C24.9235 198.599 22.6635 198.34 21.0156 198.261C14.2748 197.924 12.2189 197.618 8.37373 196.346C6.12943 195.609 5.83123 195.193 7.92644 195.727C8.68762 195.923 10.2728 196.244 11.4342 196.448ZM27.3405 197.053C28.1801 197.367 27.6779 197.304 26.6735 196.974C26.1712 196.809 25.9986 196.715 26.2889 196.77C26.5714 196.817 27.0501 196.951 27.3405 197.053ZM8.05984 198.261C11.6617 199.493 14.0787 199.838 20.788 200.066C23.3384 200.152 25.206 200.317 26.0378 200.521C26.5558 200.655 28.1173 203.966 29.318 207.458C31.8605 214.882 34.5442 220.43 39.4644 228.434C47.0998 240.848 49.3676 242.629 65.5957 248.868C70.7827 250.861 76.3935 253.741 76.6367 254.542C76.6603 254.62 76.056 254.887 75.287 255.138L73.9059 255.585H70.0529C61.4367 255.585 58.337 254.683 48.936 249.441C45.0987 247.299 43.6549 246.734 43.443 247.275C43.2703 247.73 43.7647 248.209 46.2052 249.951C48.324 251.458 48.2847 251.418 47.806 251.332C47.3195 251.238 46.9428 251.889 47.2253 252.336C47.5 252.776 46.935 253.584 46.4406 253.466C45.7344 253.286 45.1458 254.471 45.6559 255.036C45.9619 255.373 45.6559 255.915 45.1144 255.993C44.9261 256.017 44.6907 256.221 44.5808 256.448L44.3925 256.856L43.1448 256.315C38.4364 254.283 37.1966 254.008 37.793 255.13C39.4409 258.245 53.0323 263.009 67.7066 265.622C72.3914 266.454 74.0236 266.94 77.4372 268.541L78.8732 269.216L78.269 269.318C77.3508 269.483 72.6347 270.589 71.7872 270.832C70.6885 271.162 63.5947 270.793 59.7103 270.212C52.5379 269.137 46.6446 266.681 38.7033 261.455C32.347 257.264 29.5691 256.731 33.2965 260.419C34.0577 261.165 34.8738 262.067 35.1171 262.436C35.7527 263.377 36.7493 264.476 40.7043 268.564C48.8811 277.039 50.7174 279.37 53.9033 285.31C54.7508 286.888 55.512 288.261 55.5983 288.363C55.9985 288.857 55.4021 288.481 54.8058 287.869C53.8562 286.896 52.585 285.97 48.0179 282.901C40.3512 277.769 38.2952 275.643 29.161 263.432C19.6816 250.767 16.3073 245.501 11.4655 235.826C4.2304 221.348 3.17887 216.734 4.55998 205.496C4.95234 202.342 5.82339 197.578 6.01172 197.578C6.04311 197.578 6.96908 197.885 8.05984 198.261ZM27.5837 198.049C28.2821 198.222 28.855 198.426 28.855 198.497C28.855 198.708 28.5568 198.654 27.2698 198.183C25.8181 197.657 25.8887 197.626 27.5837 198.049ZM12.7525 244.874C13.4352 246.066 13.443 246.09 13.3018 246.945C12.878 249.582 10.8613 253.576 8.82102 255.813L7.92644 256.786L7.82443 256.04C7.7695 255.624 7.61255 254.965 7.487 254.573C7.22019 253.741 7.21234 253.835 8.1854 250.155C9.20554 246.294 9.43311 244.56 9.37033 241.24L9.3154 238.525L10.6887 241.099C11.442 242.512 12.368 244.215 12.7525 244.874ZM199.799 245.494C199.148 253.922 198.269 257.869 196.613 259.87C194.141 262.852 190.759 265.92 185.823 269.663C183.814 271.193 182.292 272.488 179.883 274.74C175.959 278.413 173.283 280.139 171.439 280.178C170.05 280.21 165.561 280.539 165.059 280.649C164.369 280.79 164.557 280.634 167.021 278.993C169.76 277.173 170.482 276.482 173.126 273.147C175.802 269.781 177.309 268.431 182.072 265.174C191.395 258.803 193.223 256.904 196.174 250.532C197.194 248.334 199.815 243.406 199.909 243.5C199.932 243.524 199.885 244.419 199.799 245.494ZM51.3216 253.255C56.5165 256.229 61.1228 257.68 68.2716 258.606C73.749 259.305 77.3508 260.207 81.4942 261.894L82.7576 262.404L81.4157 262.601C78.881 262.962 72.3835 262.969 67.9812 262.616C65.8076 262.444 63.7124 262.302 63.3278 262.302C61.3111 262.302 51.8317 259.783 47.4608 258.088C46.2601 257.625 46.2287 257.594 46.37 257.225C46.4485 257.021 46.4799 256.699 46.4328 256.519C46.3308 256.048 46.6839 255.672 47.194 255.703C47.806 255.75 48.167 255.122 47.908 254.439C47.6491 253.757 48.1199 252.949 48.7006 253.066C49.0224 253.121 49.1165 253.058 49.2656 252.666C49.3598 252.407 49.454 252.195 49.4618 252.195C49.4696 252.195 50.3093 252.674 51.3216 253.255ZM194.502 265.057C194.149 265.575 193.215 266.846 192.43 267.882C188.632 272.873 187.644 274.199 185.768 276.835C182.488 281.457 179.443 284.879 176.752 286.943C175.645 287.798 175.119 288.033 171.816 289.156C170.403 289.634 168.638 290.278 167.892 290.568L166.535 291.11L167.139 290.639C168.52 289.556 170.081 287.767 171.541 285.609C174.162 281.732 174.468 281.355 175.684 280.563C177.285 279.535 178.219 278.766 180.816 276.372C183.626 273.791 184.528 273.03 187.738 270.573C190.178 268.698 192.791 266.43 194.29 264.884C195.248 263.895 195.271 263.911 194.502 265.057Z" fill="#FFE156"/>
</g>
</svg>
