<svg width="46" height="51" viewBox="0 0 46 51" fill="none" xmlns="http://www.w3.org/2000/svg">
<path d="M44.9775 7.33757C45.1293 9.16857 44.5126 10.9015 43.1307 12.5365C41.7456 14.1746 39.8324 15.5913 37.3879 16.7867C34.9497 17.9852 32.2301 18.8359 29.229 19.3418C29.7255 20.6669 30.3327 21.8907 31.0505 23.0102C31.7652 24.1328 32.423 25.3218 33.0238 26.5773C33.6215 27.8359 34.001 29.3728 34.1623 31.1943C34.4311 34.3503 33.8397 37.2344 32.3914 39.8465C30.9493 42.4523 28.8812 44.5868 26.1932 46.2471C23.5115 47.9105 20.4251 48.8845 16.9338 49.1817C14.0403 49.4252 11.4313 49.0837 9.10386 48.1571C6.77637 47.2211 4.90743 45.8107 3.50019 43.9196C2.08978 42.0222 1.27706 39.7769 1.05885 37.1775C0.856464 34.8848 1.17586 32.7597 2.02021 30.8022C2.87088 28.8478 4.08522 27.254 5.66323 26.0207C7.24756 24.7906 9.05959 24.0917 11.1025 23.9209C12.6362 23.7881 13.8917 23.9462 14.872 24.4016C15.8586 24.8506 16.5923 25.4199 17.073 26.1093C17.56 26.7923 17.8319 27.4311 17.8825 28.0193C17.9648 28.9996 17.6675 29.474 16.9844 29.4487C15.6183 29.5689 14.3913 30.0274 13.3035 30.8275C12.2156 31.6212 11.3839 32.6553 10.8115 33.9266C10.236 35.201 10.0146 36.5829 10.1411 38.0756C10.3087 40.0331 11.0582 41.5415 12.3927 42.604C13.724 43.6666 15.3274 44.1188 17.1995 43.9575C18.9862 43.8057 20.5547 43.2587 21.905 42.3131C23.2617 41.3612 24.2894 40.1184 24.9915 38.5815C25.6904 37.0383 25.9592 35.3307 25.801 33.4585C25.6746 31.9659 25.3457 30.4859 24.8144 29.0186C24.2831 27.545 23.7265 26.0397 23.1447 24.5028C22.5628 22.969 22.1106 21.3531 21.7912 19.6581C19.2107 19.4557 16.8959 18.9307 14.8467 18.0769C12.8038 17.2262 11.1689 16.1415 9.93872 14.826C8.71489 13.5105 8.04131 12.0684 7.91482 10.4999C7.80414 9.26027 7.98123 8.15345 8.44609 7.17313C8.91728 6.19596 9.54659 5.39589 10.3309 4.76974C11.1214 4.13727 11.9183 3.78942 12.7216 3.71984C13.6987 3.63762 14.2205 3.99813 14.2901 4.80769C14.2901 5.28837 14.2775 5.62674 14.2522 5.81964C14.2269 6.00622 14.2332 6.35724 14.2775 6.86954C14.4704 9.12113 15.2009 11.0533 16.4658 12.663C17.7371 14.2663 19.4068 15.3889 21.475 16.0277C21.5256 13.4978 22.1011 11.202 23.2079 9.13378C24.3116 7.06877 25.8706 5.38956 27.8882 4.09933C29.9026 2.80909 32.2933 2.04696 35.0604 1.80979C37.8243 1.57577 40.1265 1.94893 41.967 2.93558C43.8043 3.91591 44.8067 5.38324 44.9775 7.33757ZM28.508 16.1921C30.437 15.8127 32.2269 15.1897 33.8714 14.32C35.5158 13.4535 36.8345 12.4542 37.8306 11.3221C38.8236 10.1837 39.2726 9.04207 39.1714 7.89414C39.1019 7.08458 38.7477 6.47425 38.1089 6.05998C37.4669 5.63939 36.6605 5.47178 35.6929 5.554C34.409 5.66469 33.182 6.14536 32.0119 6.99603C30.8387 7.84987 29.9121 9.01994 29.229 10.5126C28.546 12.0052 28.293 13.7951 28.4701 15.8759L28.508 16.1921Z" fill="#FFDE58" stroke="#3777FF" stroke-width="2"/>
</svg>
