<svg width="36" height="36" viewBox="0 0 36 36" fill="none" xmlns="http://www.w3.org/2000/svg">
<g id="Search" clip-path="url(#clip0_98_167)">
<path id="Vector" d="M26.1856 23.1275C28.3038 20.2371 29.2525 16.6535 28.8419 13.0937C28.4314 9.53393 26.6918 6.2604 23.9714 3.92807C21.2509 1.59574 17.7501 0.376608 14.1693 0.514581C10.5886 0.652554 7.19198 2.13746 4.65903 4.67221C2.12609 7.20697 0.643621 10.6046 0.508211 14.1855C0.372801 17.7663 1.59444 21.2663 3.92871 23.9851C6.26299 26.7039 9.53776 28.4411 13.0979 28.8491C16.658 29.2571 20.2408 28.3058 23.1297 26.1856H23.1275C23.1917 26.2731 23.2631 26.357 23.3419 26.4372L31.7638 34.859C32.1739 35.2695 32.7304 35.5002 33.3106 35.5004C33.8909 35.5006 34.4475 35.2703 34.858 34.8601C35.2684 34.45 35.4992 33.8935 35.4994 33.3133C35.4996 32.733 35.2692 32.1764 34.8591 31.7659L26.4372 23.344C26.359 23.2648 26.2749 23.1939 26.1856 23.1275ZM26.75 14.7187C26.75 16.2987 26.4388 17.8632 25.8342 19.3229C25.2296 20.7826 24.3433 22.1089 23.2261 23.2261C22.1089 24.3433 20.7826 25.2295 19.3229 25.8342C17.8632 26.4388 16.2987 26.75 14.7188 26.75C13.1388 26.75 11.5743 26.4388 10.1146 25.8342C8.6549 25.2295 7.32859 24.3433 6.21138 23.2261C5.09418 22.1089 4.20796 20.7826 3.60333 19.3229C2.99871 17.8632 2.68751 16.2987 2.68751 14.7187C2.68751 11.5278 3.95509 8.46765 6.21138 6.21135C8.46768 3.95505 11.5279 2.68748 14.7188 2.68748C17.9096 2.68748 20.9698 3.95505 23.2261 6.21135C25.4824 8.46765 26.75 11.5278 26.75 14.7187Z" fill="#FFE156"/>
</g>
<defs>
<clipPath id="clip0_98_167">
<rect width="35" height="35" fill="white" transform="translate(0.5 0.5)"/>
</clipPath>
</defs>
</svg>
