<svg width="36" height="36" viewBox="0 0 36 36" fill="none" xmlns="http://www.w3.org/2000/svg">
<g id="settings 1">
<path id="Vector" d="M18 22.375C20.4162 22.375 22.375 20.4162 22.375 18C22.375 15.5838 20.4162 13.625 18 13.625C15.5838 13.625 13.625 15.5838 13.625 18C13.625 20.4162 15.5838 22.375 18 22.375Z" stroke="#FFE156" stroke-width="2" stroke-linecap="round" stroke-linejoin="round"/>
<path id="Vector_2" d="M28.7916 22.375C28.5975 22.8149 28.5396 23.3028 28.6253 23.7759C28.7111 24.249 28.9366 24.6855 29.2728 25.0292L29.3603 25.1167C29.6315 25.3876 29.8466 25.7093 29.9934 26.0633C30.1402 26.4174 30.2158 26.797 30.2158 27.1803C30.2158 27.5635 30.1402 27.9431 29.9934 28.2972C29.8466 28.6512 29.6315 28.9729 29.3603 29.2438C29.0895 29.515 28.7678 29.7301 28.4137 29.8769C28.0596 30.0237 27.6801 30.0992 27.2968 30.0992C26.9135 30.0992 26.534 30.0237 26.1799 29.8769C25.8258 29.7301 25.5041 29.515 25.2333 29.2438L25.1458 29.1563C24.8021 28.8201 24.3655 28.5946 23.8924 28.5088C23.4194 28.423 22.9314 28.4809 22.4916 28.675C22.0603 28.8599 21.6924 29.1669 21.4333 29.5581C21.1742 29.9494 21.0351 30.4079 21.0333 30.8771V31.125C21.0333 31.8986 20.726 32.6405 20.179 33.1874C19.632 33.7344 18.8901 34.0417 18.1166 34.0417C17.343 34.0417 16.6012 33.7344 16.0542 33.1874C15.5072 32.6405 15.1999 31.8986 15.1999 31.125V30.9938C15.1886 30.5111 15.0324 30.043 14.7515 29.6502C14.4706 29.2575 14.0781 28.9584 13.6249 28.7917C13.1851 28.5976 12.6971 28.5397 12.2241 28.6255C11.751 28.7112 11.3145 28.9368 10.9708 29.273L10.8833 29.3605C10.6124 29.6316 10.2907 29.8468 9.93662 29.9936C9.58254 30.1403 9.20301 30.2159 8.81971 30.2159C8.43642 30.2159 8.05688 30.1403 7.7028 29.9936C7.34872 29.8468 7.02705 29.6316 6.75617 29.3605C6.48499 29.0896 6.26986 28.7679 6.12308 28.4138C5.9763 28.0597 5.90075 27.6802 5.90075 27.2969C5.90075 26.9136 5.9763 26.5341 6.12308 26.18C6.26986 25.8259 6.48499 25.5043 6.75617 25.2334L6.84367 25.1459C7.17987 24.8022 7.4054 24.3656 7.49118 23.8926C7.57695 23.4195 7.51905 22.9316 7.32492 22.4917C7.14006 22.0604 6.8331 21.6925 6.44185 21.4334C6.05059 21.1743 5.59211 21.0352 5.12284 21.0334H4.87492C4.10137 21.0334 3.35951 20.7261 2.81252 20.1791C2.26554 19.6321 1.95825 18.8903 1.95825 18.1167C1.95825 17.3432 2.26554 16.6013 2.81252 16.0543C3.35951 15.5073 4.10137 15.2 4.87492 15.2H5.00617C5.48887 15.1888 5.95701 15.0325 6.34973 14.7516C6.74245 14.4707 7.04159 14.0782 7.20825 13.625C7.40238 13.1852 7.46029 12.6973 7.37451 12.2242C7.28873 11.7511 7.0632 11.3146 6.727 10.9709L6.6395 10.8834C6.36832 10.6125 6.15319 10.2908 6.00641 9.93674C5.85963 9.58266 5.78408 9.20313 5.78408 8.81983C5.78408 8.43654 5.85963 8.057 6.00641 7.70292C6.15319 7.34885 6.36832 7.02717 6.6395 6.75629C6.91038 6.48511 7.23206 6.26998 7.58614 6.1232C7.94021 5.97642 8.31975 5.90087 8.70304 5.90087C9.08634 5.90087 9.46588 5.97642 9.81995 6.1232C10.174 6.26998 10.4957 6.48511 10.7666 6.75629L10.8541 6.84379C11.1978 7.17999 11.6343 7.40552 12.1074 7.4913C12.5805 7.57708 13.0684 7.51917 13.5083 7.32504H13.6249C14.0563 7.14018 14.4241 6.83323 14.6832 6.44197C14.9423 6.05071 15.0814 5.59223 15.0833 5.12296V4.87504C15.0833 4.10149 15.3905 3.35963 15.9375 2.81265C16.4845 2.26566 17.2264 1.95837 17.9999 1.95837C18.7735 1.95837 19.5153 2.26566 20.0623 2.81265C20.6093 3.35963 20.9166 4.10149 20.9166 4.87504V5.00629C20.9185 5.47556 21.0575 5.93405 21.3166 6.3253C21.5757 6.71656 21.9436 7.02351 22.3749 7.20837C22.8148 7.4025 23.3027 7.46041 23.7758 7.37463C24.2489 7.28885 24.6854 7.06332 25.0291 6.72712L25.1166 6.63962C25.3875 6.36844 25.7091 6.15331 26.0632 6.00653C26.4173 5.85975 26.7968 5.78421 27.1801 5.78421C27.5634 5.78421 27.943 5.85975 28.297 6.00653C28.6511 6.15331 28.9728 6.36844 29.2437 6.63962C29.5149 6.9105 29.73 7.23218 29.8768 7.58626C30.0235 7.94033 30.0991 8.31987 30.0991 8.70317C30.0991 9.08646 30.0235 9.466 29.8768 9.82008C29.73 10.1742 29.5149 10.4958 29.2437 10.7667L29.1562 10.8542C28.82 11.1979 28.5944 11.6344 28.5087 12.1075C28.4229 12.5806 28.4808 13.0685 28.6749 13.5084V13.625C28.8598 14.0564 29.1667 14.4242 29.558 14.6833C29.9493 14.9425 30.4077 15.0815 30.877 15.0834H31.1249C31.8985 15.0834 32.6403 15.3907 33.1873 15.9376C33.7343 16.4846 34.0416 17.2265 34.0416 18C34.0416 18.7736 33.7343 19.5155 33.1873 20.0624C32.6403 20.6094 31.8985 20.9167 31.1249 20.9167H30.9937C30.5244 20.9186 30.0659 21.0576 29.6747 21.3167C29.2834 21.5759 28.9765 21.9437 28.7916 22.375Z" stroke="#FFE156" stroke-linecap="round" stroke-linejoin="round"/>
</g>
</svg>
