<svg width="281" height="102" viewBox="0 0 281 102" fill="none" xmlns="http://www.w3.org/2000/svg">
<mask id="path-1-outside-1_62_112" maskUnits="userSpaceOnUse" x="0" y="0" width="281" height="102" fill="black">
<rect fill="white" width="281" height="102"/>
<path d="M77.384 16.512C77.384 20.544 74.952 24.096 70.088 27.168C65.224 30.176 59.304 31.936 52.328 32.448C52.52 33.152 53.544 35.584 55.4 39.744C57.256 43.904 58.184 47.584 58.184 50.784C58.184 57.824 55.464 63.712 50.024 68.448C44.648 73.12 38.024 75.456 30.152 75.456C23.56 75.456 18.216 73.6 14.12 69.888C10.024 66.176 7.976 61.376 7.976 55.488C7.976 50.304 9.576 45.92 12.776 42.336C16.04 38.752 20.008 36.96 24.68 36.96C27.816 36.96 30.184 37.728 31.784 39.264C33.448 40.8 34.28 42.368 34.28 43.968C34.28 44.608 34.12 45.12 33.8 45.504C33.544 45.888 33.192 46.048 32.744 45.984C29.608 45.984 26.92 47.168 24.68 49.536C22.504 51.84 21.416 54.656 21.416 57.984C21.416 60.928 22.312 63.296 24.104 65.088C25.96 66.816 28.328 67.68 31.208 67.68C35.24 67.68 38.6 66.304 41.288 63.552C44.04 60.8 45.416 57.312 45.416 53.088C45.416 50.72 44.776 47.2 43.496 42.528C42.216 37.792 41.448 34.272 41.192 31.968C35.432 31.008 30.728 29.088 27.08 26.208C23.432 23.328 21.608 20.096 21.608 16.512C21.608 13.888 22.472 11.648 24.2 9.792C25.928 7.936 27.752 7.008 29.672 7.008C31.144 7.008 31.88 7.616 31.88 8.832C31.88 9.216 31.816 9.696 31.688 10.272C31.624 10.784 31.592 11.328 31.592 11.904C31.592 15.296 32.424 18.272 34.088 20.832C35.816 23.392 38.184 25.28 41.192 26.496C41.768 20.736 44.04 16.064 48.008 12.48C52.04 8.832 57.128 7.008 63.272 7.008C67.496 7.008 70.888 7.872 73.448 9.6C76.072 11.328 77.384 13.632 77.384 16.512ZM51.656 27.648C56.072 27.2 60.008 25.888 63.464 23.712C66.92 21.536 68.648 19.168 68.648 16.608C68.648 15.392 68.2 14.432 67.304 13.728C66.408 13.024 65.224 12.672 63.752 12.672C60.552 12.672 57.736 13.984 55.304 16.608C52.872 19.232 51.656 22.752 51.656 27.168V27.648ZM106.082 50.784C101.41 56.672 96.226 61.696 90.53 65.856C84.898 69.952 79.522 72 74.402 72C70.882 72 68.098 70.944 66.05 68.832C64.066 66.656 63.074 63.776 63.074 60.192C63.074 56.16 64.45 51.712 67.202 46.848C70.018 41.92 73.602 37.728 77.954 34.272C82.306 30.752 86.498 28.992 90.53 28.992C93.282 28.992 95.458 29.824 97.058 31.488C98.658 33.088 99.458 34.88 99.458 36.864C99.458 39.04 98.434 41.216 96.386 43.392C94.338 45.568 92.226 46.656 90.05 46.656C89.154 46.656 88.354 46.496 87.65 46.176C87.01 45.792 86.69 45.376 86.69 44.928C86.69 44.736 86.818 44.512 87.074 44.256C87.65 43.744 88.642 42.368 90.05 40.128C91.458 37.824 92.162 36.096 92.162 34.944C92.162 34.112 91.778 33.696 91.01 33.696C89.474 33.696 87.394 35.072 84.77 37.824C82.146 40.576 79.746 43.968 77.57 48C75.458 52.032 74.402 55.584 74.402 58.656C74.402 62.24 76.066 64.032 79.394 64.032C86.05 64.032 93.922 58.592 103.01 47.712C103.202 47.52 103.458 47.424 103.778 47.424C104.098 47.424 104.386 47.552 104.642 47.808C104.962 48 105.25 48.256 105.506 48.576C105.826 48.832 106.018 49.184 106.082 49.632C106.146 50.016 106.146 50.4 106.082 50.784ZM140.2 47.328C140.904 47.328 141.512 47.712 142.024 48.48C142.536 49.248 142.664 50.016 142.408 50.784C137.416 56.544 132.296 61.536 127.048 65.76C121.8 69.92 117.384 72 113.8 72C111.816 72 110.28 71.328 109.192 69.984C108.168 68.576 107.656 66.912 107.656 64.992C107.656 59.104 112.84 50.592 123.208 39.456C121.288 40.16 119.112 40.512 116.68 40.512C116.104 40.512 115.304 40.448 114.28 40.32C111.784 43.84 109.064 47.328 106.12 50.784C105.352 50.912 104.552 50.592 103.72 49.824C102.952 48.992 102.728 48.288 103.048 47.712C105.16 45.28 107.368 42.176 109.672 38.4C108.52 37.376 107.944 35.968 107.944 34.176C107.944 31.424 109.096 28.928 111.4 26.688C113.704 24.448 116.072 23.328 118.504 23.328C120.36 23.328 121.288 24.224 121.288 26.016C121.288 27.488 120.648 29.568 119.368 32.256C120.584 32.448 121.864 32.544 123.208 32.544C126.856 32.544 129.768 32.032 131.944 31.008C132.712 31.008 133.48 31.648 134.248 32.928C135.016 34.208 135.4 35.264 135.4 36.096C135.4 36.352 135.24 36.64 134.92 36.96C131.144 41.568 127.752 46.208 124.744 50.88C121.736 55.488 120.232 58.752 120.232 60.672C120.232 61.504 120.68 61.92 121.576 61.92C123.24 61.92 125.736 60.576 129.064 57.888C132.456 55.2 135.88 51.808 139.336 47.712C139.72 47.456 140.008 47.328 140.2 47.328ZM178.69 47.712C179.394 47.264 180.13 47.424 180.898 48.192C181.666 48.96 181.954 49.824 181.762 50.784C176.002 56.928 170.594 60 165.538 60C165.026 60 164.61 59.968 164.29 59.904C161.41 63.488 158.21 66.4 154.69 68.64C151.17 70.88 147.65 72 144.13 72C140.866 72 138.274 71.04 136.354 69.12C134.498 67.136 133.57 64.384 133.57 60.864C133.57 56.576 134.946 52.032 137.698 47.232C140.45 42.432 143.714 38.496 147.49 35.424C151.266 32.352 154.594 30.816 157.474 30.816H157.57C159.426 29.6 161.57 28.992 164.002 28.992C166.882 28.992 169.09 30.08 170.626 32.256C172.162 34.368 172.93 36.832 172.93 39.648C172.93 43.936 171.458 48.608 168.514 53.664C171.714 53.344 175.106 51.36 178.69 47.712ZM162.178 52.032C164.93 47.488 166.306 43.552 166.306 40.224C166.306 36.64 164.482 34.816 160.834 34.752C159.618 35.328 158.21 36.352 156.609 37.824C156.354 38.528 156.226 39.424 156.226 40.512C156.226 42.56 156.77 44.672 157.858 46.848C158.946 49.024 160.386 50.752 162.178 52.032ZM148.354 63.456C151.49 63.456 154.786 61.44 158.242 57.408C156.322 55.872 154.786 53.824 153.634 51.264C152.546 48.64 152.002 45.984 152.002 43.296V42.912C147.33 49.184 144.994 54.656 144.994 59.328C144.994 62.08 146.114 63.456 148.354 63.456ZM178.225 72C176.497 72 175.121 71.392 174.097 70.176C173.137 68.896 172.657 67.2 172.657 65.088C172.657 61.376 174.801 55.2 179.089 46.56C183.441 37.856 188.145 29.92 193.201 22.752C198.257 15.584 201.745 12 203.665 12C205.009 12 206.353 12.608 207.697 13.824C209.041 15.04 209.713 16.128 209.713 17.088C209.713 17.472 209.585 17.76 209.329 17.952C203.697 24.096 198.129 32.032 192.625 41.76C187.121 51.424 184.369 57.696 184.369 60.576C184.369 61.472 184.785 61.92 185.617 61.92C186.769 61.92 188.849 60.608 191.857 57.984C194.865 55.296 198.161 51.872 201.745 47.712C201.937 47.52 202.193 47.424 202.513 47.424C203.153 47.424 203.729 47.808 204.241 48.576C204.817 49.28 205.009 50.016 204.817 50.784C193.169 64.928 184.305 72 178.225 72ZM201.287 72C199.559 72 198.183 71.392 197.159 70.176C196.199 68.896 195.719 67.2 195.719 65.088C195.719 61.376 197.863 55.2 202.151 46.56C206.503 37.856 211.207 29.92 216.263 22.752C221.319 15.584 224.807 12 226.727 12C228.071 12 229.415 12.608 230.759 13.824C232.103 15.04 232.775 16.128 232.775 17.088C232.775 17.472 232.647 17.76 232.391 17.952C226.759 24.096 221.191 32.032 215.687 41.76C210.183 51.424 207.431 57.696 207.431 60.576C207.431 61.472 207.847 61.92 208.679 61.92C209.831 61.92 211.911 60.608 214.919 57.984C217.927 55.296 221.223 51.872 224.807 47.712C224.999 47.52 225.255 47.424 225.575 47.424C226.215 47.424 226.791 47.808 227.303 48.576C227.879 49.28 228.071 50.016 227.879 50.784C216.231 64.928 207.367 72 201.287 72ZM271.198 47.424C271.838 47.424 272.382 47.84 272.83 48.672C273.342 49.44 273.534 50.144 273.406 50.784C267.774 58.016 259.646 64.352 249.022 69.792C239.678 86.24 231.102 94.464 223.294 94.464C220.862 94.464 218.878 93.792 217.341 92.448C215.805 91.168 215.037 89.408 215.037 87.168C215.037 86.08 215.229 85.056 215.613 84.096C215.997 83.136 216.669 82.208 217.63 81.312C218.59 80.416 219.518 79.616 220.414 78.912C221.31 78.272 222.622 77.504 224.35 76.608C226.078 75.776 227.55 75.072 228.766 74.496C229.982 73.92 231.742 73.12 234.046 72.096C236.414 71.136 238.27 70.336 239.614 69.696C241.79 65.408 244.926 58.656 249.022 49.44C238.782 63.712 230.622 70.848 224.542 70.848C220.958 70.848 219.166 68.576 219.166 64.032C219.166 60.512 220.51 55.968 223.198 50.4C225.886 44.832 228.766 40.032 231.838 36C234.91 31.968 237.054 29.952 238.27 29.952C239.486 29.952 240.766 30.56 242.109 31.776C243.454 32.992 244.126 34.08 244.126 35.04C244.126 35.424 244.03 35.712 243.838 35.904C240.702 39.808 237.79 44.192 235.102 49.056C232.478 53.92 231.166 57.376 231.166 59.424C231.166 60.32 231.486 60.768 232.126 60.768C233.726 60.768 237.342 57.472 242.974 50.88C248.67 44.224 253.374 37.92 257.086 31.968C257.662 30.944 258.654 30.432 260.062 30.432C261.534 30.432 262.974 30.88 264.382 31.776C265.854 32.672 266.59 33.6 266.59 34.56C266.59 34.944 266.398 35.328 266.014 35.712C265.054 37.248 263.07 41.28 260.062 47.808C257.054 54.272 254.654 59.264 252.862 62.784C259.902 58.432 265.726 53.408 270.333 47.712C270.654 47.52 270.942 47.424 271.198 47.424ZM225.022 87.648C228.03 87.648 231.806 83.68 236.35 75.744C233.854 76.832 231.966 77.696 230.686 78.336C229.406 78.976 228.03 79.712 226.558 80.544C225.086 81.44 224.03 82.24 223.39 82.944C222.814 83.712 222.526 84.512 222.526 85.344C222.526 86.88 223.358 87.648 225.022 87.648Z"/>
</mask>
<path d="M77.384 16.512C77.384 20.544 74.952 24.096 70.088 27.168C65.224 30.176 59.304 31.936 52.328 32.448C52.52 33.152 53.544 35.584 55.4 39.744C57.256 43.904 58.184 47.584 58.184 50.784C58.184 57.824 55.464 63.712 50.024 68.448C44.648 73.12 38.024 75.456 30.152 75.456C23.56 75.456 18.216 73.6 14.12 69.888C10.024 66.176 7.976 61.376 7.976 55.488C7.976 50.304 9.576 45.92 12.776 42.336C16.04 38.752 20.008 36.96 24.68 36.96C27.816 36.96 30.184 37.728 31.784 39.264C33.448 40.8 34.28 42.368 34.28 43.968C34.28 44.608 34.12 45.12 33.8 45.504C33.544 45.888 33.192 46.048 32.744 45.984C29.608 45.984 26.92 47.168 24.68 49.536C22.504 51.84 21.416 54.656 21.416 57.984C21.416 60.928 22.312 63.296 24.104 65.088C25.96 66.816 28.328 67.68 31.208 67.68C35.24 67.68 38.6 66.304 41.288 63.552C44.04 60.8 45.416 57.312 45.416 53.088C45.416 50.72 44.776 47.2 43.496 42.528C42.216 37.792 41.448 34.272 41.192 31.968C35.432 31.008 30.728 29.088 27.08 26.208C23.432 23.328 21.608 20.096 21.608 16.512C21.608 13.888 22.472 11.648 24.2 9.792C25.928 7.936 27.752 7.008 29.672 7.008C31.144 7.008 31.88 7.616 31.88 8.832C31.88 9.216 31.816 9.696 31.688 10.272C31.624 10.784 31.592 11.328 31.592 11.904C31.592 15.296 32.424 18.272 34.088 20.832C35.816 23.392 38.184 25.28 41.192 26.496C41.768 20.736 44.04 16.064 48.008 12.48C52.04 8.832 57.128 7.008 63.272 7.008C67.496 7.008 70.888 7.872 73.448 9.6C76.072 11.328 77.384 13.632 77.384 16.512ZM51.656 27.648C56.072 27.2 60.008 25.888 63.464 23.712C66.92 21.536 68.648 19.168 68.648 16.608C68.648 15.392 68.2 14.432 67.304 13.728C66.408 13.024 65.224 12.672 63.752 12.672C60.552 12.672 57.736 13.984 55.304 16.608C52.872 19.232 51.656 22.752 51.656 27.168V27.648ZM106.082 50.784C101.41 56.672 96.226 61.696 90.53 65.856C84.898 69.952 79.522 72 74.402 72C70.882 72 68.098 70.944 66.05 68.832C64.066 66.656 63.074 63.776 63.074 60.192C63.074 56.16 64.45 51.712 67.202 46.848C70.018 41.92 73.602 37.728 77.954 34.272C82.306 30.752 86.498 28.992 90.53 28.992C93.282 28.992 95.458 29.824 97.058 31.488C98.658 33.088 99.458 34.88 99.458 36.864C99.458 39.04 98.434 41.216 96.386 43.392C94.338 45.568 92.226 46.656 90.05 46.656C89.154 46.656 88.354 46.496 87.65 46.176C87.01 45.792 86.69 45.376 86.69 44.928C86.69 44.736 86.818 44.512 87.074 44.256C87.65 43.744 88.642 42.368 90.05 40.128C91.458 37.824 92.162 36.096 92.162 34.944C92.162 34.112 91.778 33.696 91.01 33.696C89.474 33.696 87.394 35.072 84.77 37.824C82.146 40.576 79.746 43.968 77.57 48C75.458 52.032 74.402 55.584 74.402 58.656C74.402 62.24 76.066 64.032 79.394 64.032C86.05 64.032 93.922 58.592 103.01 47.712C103.202 47.52 103.458 47.424 103.778 47.424C104.098 47.424 104.386 47.552 104.642 47.808C104.962 48 105.25 48.256 105.506 48.576C105.826 48.832 106.018 49.184 106.082 49.632C106.146 50.016 106.146 50.4 106.082 50.784ZM140.2 47.328C140.904 47.328 141.512 47.712 142.024 48.48C142.536 49.248 142.664 50.016 142.408 50.784C137.416 56.544 132.296 61.536 127.048 65.76C121.8 69.92 117.384 72 113.8 72C111.816 72 110.28 71.328 109.192 69.984C108.168 68.576 107.656 66.912 107.656 64.992C107.656 59.104 112.84 50.592 123.208 39.456C121.288 40.16 119.112 40.512 116.68 40.512C116.104 40.512 115.304 40.448 114.28 40.32C111.784 43.84 109.064 47.328 106.12 50.784C105.352 50.912 104.552 50.592 103.72 49.824C102.952 48.992 102.728 48.288 103.048 47.712C105.16 45.28 107.368 42.176 109.672 38.4C108.52 37.376 107.944 35.968 107.944 34.176C107.944 31.424 109.096 28.928 111.4 26.688C113.704 24.448 116.072 23.328 118.504 23.328C120.36 23.328 121.288 24.224 121.288 26.016C121.288 27.488 120.648 29.568 119.368 32.256C120.584 32.448 121.864 32.544 123.208 32.544C126.856 32.544 129.768 32.032 131.944 31.008C132.712 31.008 133.48 31.648 134.248 32.928C135.016 34.208 135.4 35.264 135.4 36.096C135.4 36.352 135.24 36.64 134.92 36.96C131.144 41.568 127.752 46.208 124.744 50.88C121.736 55.488 120.232 58.752 120.232 60.672C120.232 61.504 120.68 61.92 121.576 61.92C123.24 61.92 125.736 60.576 129.064 57.888C132.456 55.2 135.88 51.808 139.336 47.712C139.72 47.456 140.008 47.328 140.2 47.328ZM178.69 47.712C179.394 47.264 180.13 47.424 180.898 48.192C181.666 48.96 181.954 49.824 181.762 50.784C176.002 56.928 170.594 60 165.538 60C165.026 60 164.61 59.968 164.29 59.904C161.41 63.488 158.21 66.4 154.69 68.64C151.17 70.88 147.65 72 144.13 72C140.866 72 138.274 71.04 136.354 69.12C134.498 67.136 133.57 64.384 133.57 60.864C133.57 56.576 134.946 52.032 137.698 47.232C140.45 42.432 143.714 38.496 147.49 35.424C151.266 32.352 154.594 30.816 157.474 30.816H157.57C159.426 29.6 161.57 28.992 164.002 28.992C166.882 28.992 169.09 30.08 170.626 32.256C172.162 34.368 172.93 36.832 172.93 39.648C172.93 43.936 171.458 48.608 168.514 53.664C171.714 53.344 175.106 51.36 178.69 47.712ZM162.178 52.032C164.93 47.488 166.306 43.552 166.306 40.224C166.306 36.64 164.482 34.816 160.834 34.752C159.618 35.328 158.21 36.352 156.609 37.824C156.354 38.528 156.226 39.424 156.226 40.512C156.226 42.56 156.77 44.672 157.858 46.848C158.946 49.024 160.386 50.752 162.178 52.032ZM148.354 63.456C151.49 63.456 154.786 61.44 158.242 57.408C156.322 55.872 154.786 53.824 153.634 51.264C152.546 48.64 152.002 45.984 152.002 43.296V42.912C147.33 49.184 144.994 54.656 144.994 59.328C144.994 62.08 146.114 63.456 148.354 63.456ZM178.225 72C176.497 72 175.121 71.392 174.097 70.176C173.137 68.896 172.657 67.2 172.657 65.088C172.657 61.376 174.801 55.2 179.089 46.56C183.441 37.856 188.145 29.92 193.201 22.752C198.257 15.584 201.745 12 203.665 12C205.009 12 206.353 12.608 207.697 13.824C209.041 15.04 209.713 16.128 209.713 17.088C209.713 17.472 209.585 17.76 209.329 17.952C203.697 24.096 198.129 32.032 192.625 41.76C187.121 51.424 184.369 57.696 184.369 60.576C184.369 61.472 184.785 61.92 185.617 61.92C186.769 61.92 188.849 60.608 191.857 57.984C194.865 55.296 198.161 51.872 201.745 47.712C201.937 47.52 202.193 47.424 202.513 47.424C203.153 47.424 203.729 47.808 204.241 48.576C204.817 49.28 205.009 50.016 204.817 50.784C193.169 64.928 184.305 72 178.225 72ZM201.287 72C199.559 72 198.183 71.392 197.159 70.176C196.199 68.896 195.719 67.2 195.719 65.088C195.719 61.376 197.863 55.2 202.151 46.56C206.503 37.856 211.207 29.92 216.263 22.752C221.319 15.584 224.807 12 226.727 12C228.071 12 229.415 12.608 230.759 13.824C232.103 15.04 232.775 16.128 232.775 17.088C232.775 17.472 232.647 17.76 232.391 17.952C226.759 24.096 221.191 32.032 215.687 41.76C210.183 51.424 207.431 57.696 207.431 60.576C207.431 61.472 207.847 61.92 208.679 61.92C209.831 61.92 211.911 60.608 214.919 57.984C217.927 55.296 221.223 51.872 224.807 47.712C224.999 47.52 225.255 47.424 225.575 47.424C226.215 47.424 226.791 47.808 227.303 48.576C227.879 49.28 228.071 50.016 227.879 50.784C216.231 64.928 207.367 72 201.287 72ZM271.198 47.424C271.838 47.424 272.382 47.84 272.83 48.672C273.342 49.44 273.534 50.144 273.406 50.784C267.774 58.016 259.646 64.352 249.022 69.792C239.678 86.24 231.102 94.464 223.294 94.464C220.862 94.464 218.878 93.792 217.341 92.448C215.805 91.168 215.037 89.408 215.037 87.168C215.037 86.08 215.229 85.056 215.613 84.096C215.997 83.136 216.669 82.208 217.63 81.312C218.59 80.416 219.518 79.616 220.414 78.912C221.31 78.272 222.622 77.504 224.35 76.608C226.078 75.776 227.55 75.072 228.766 74.496C229.982 73.92 231.742 73.12 234.046 72.096C236.414 71.136 238.27 70.336 239.614 69.696C241.79 65.408 244.926 58.656 249.022 49.44C238.782 63.712 230.622 70.848 224.542 70.848C220.958 70.848 219.166 68.576 219.166 64.032C219.166 60.512 220.51 55.968 223.198 50.4C225.886 44.832 228.766 40.032 231.838 36C234.91 31.968 237.054 29.952 238.27 29.952C239.486 29.952 240.766 30.56 242.109 31.776C243.454 32.992 244.126 34.08 244.126 35.04C244.126 35.424 244.03 35.712 243.838 35.904C240.702 39.808 237.79 44.192 235.102 49.056C232.478 53.92 231.166 57.376 231.166 59.424C231.166 60.32 231.486 60.768 232.126 60.768C233.726 60.768 237.342 57.472 242.974 50.88C248.67 44.224 253.374 37.92 257.086 31.968C257.662 30.944 258.654 30.432 260.062 30.432C261.534 30.432 262.974 30.88 264.382 31.776C265.854 32.672 266.59 33.6 266.59 34.56C266.59 34.944 266.398 35.328 266.014 35.712C265.054 37.248 263.07 41.28 260.062 47.808C257.054 54.272 254.654 59.264 252.862 62.784C259.902 58.432 265.726 53.408 270.333 47.712C270.654 47.52 270.942 47.424 271.198 47.424ZM225.022 87.648C228.03 87.648 231.806 83.68 236.35 75.744C233.854 76.832 231.966 77.696 230.686 78.336C229.406 78.976 228.03 79.712 226.558 80.544C225.086 81.44 224.03 82.24 223.39 82.944C222.814 83.712 222.526 84.512 222.526 85.344C222.526 86.88 223.358 87.648 225.022 87.648Z" fill="#3777FF"/>
<path d="M70.088 27.168L73.7698 33.1215L73.798 33.1041L73.826 33.0864L70.088 27.168ZM52.328 32.448L51.8156 25.4668L43.3381 26.089L45.5747 34.2898L52.328 32.448ZM55.4 39.744L61.7926 36.8919L55.4 39.744ZM50.024 68.448L54.6157 73.7316L54.6203 73.7276L50.024 68.448ZM14.12 69.888L18.8206 64.7011L14.12 69.888ZM12.776 42.336L7.6006 37.6227L7.57739 37.6482L7.55444 37.6739L12.776 42.336ZM31.784 39.264L26.9363 44.3137L26.9857 44.3612L27.036 44.4076L31.784 39.264ZM33.8 45.504L28.4225 41.0227L28.1831 41.31L27.9756 41.6211L33.8 45.504ZM32.744 45.984L33.734 39.0544L33.2415 38.984H32.744V45.984ZM24.68 49.536L19.5947 44.7256L19.5909 44.7296L24.68 49.536ZM24.104 65.088L19.1543 70.0378L19.2426 70.1261L19.3341 70.2113L24.104 65.088ZM41.288 63.552L36.3383 58.6022L36.3091 58.6314L36.2804 58.6608L41.288 63.552ZM43.496 42.528L36.7385 44.3544L36.7416 44.366L36.7448 44.3776L43.496 42.528ZM41.192 31.968L48.1492 31.195L47.5646 25.9335L42.3428 25.0632L41.192 31.968ZM27.08 26.208L31.4175 20.7138H31.4175L27.08 26.208ZM24.2 9.792L29.3233 14.5619L29.3233 14.5619L24.2 9.792ZM31.688 10.272L24.8547 8.75351L24.783 9.07596L24.7421 9.40374L31.688 10.272ZM34.088 20.832L28.2189 24.6469L28.252 24.6979L28.2861 24.7483L34.088 20.832ZM41.192 26.496L38.5685 32.9858L47.2279 36.4864L48.1573 27.1925L41.192 26.496ZM48.008 12.48L52.7 17.6747L52.7044 17.6707L48.008 12.48ZM73.448 9.6L69.5317 15.4019L69.5648 15.4243L69.5981 15.4462L73.448 9.6ZM51.656 27.648H44.656V35.3941L52.3625 34.6123L51.656 27.648ZM63.464 23.712L59.7343 17.7884H59.7343L63.464 23.712ZM67.304 13.728L71.6288 8.22377L71.6288 8.22376L67.304 13.728ZM55.304 16.608L60.438 21.3664L60.438 21.3663L55.304 16.608ZM70.384 16.512C70.384 17.2042 70.129 18.8629 66.35 21.2496L73.826 33.0864C79.775 29.3291 84.384 23.8838 84.384 16.512H70.384ZM66.4062 21.2145C62.6914 23.5118 57.9152 25.0191 51.8156 25.4668L52.8404 39.4292C60.6928 38.8529 67.7566 36.8402 73.7698 33.1215L66.4062 21.2145ZM45.5747 34.2898C45.8181 35.1823 46.3315 36.4308 46.7886 37.5164C47.3285 38.7988 48.0714 40.4983 49.0074 42.5961L61.7926 36.8919C60.8726 34.8297 60.1755 33.2332 59.6915 32.0836C59.4486 31.5069 59.2729 31.0745 59.1545 30.7693C59.0072 30.3892 59.0253 30.4006 59.0814 30.6062L45.5747 34.2898ZM49.0074 42.5961C50.6202 46.211 51.184 48.8907 51.184 50.784H65.184C65.184 46.2773 63.8918 41.597 61.7926 36.8919L49.0074 42.5961ZM51.184 50.784C51.184 55.7431 49.3836 59.7245 45.4277 63.1684L54.6203 73.7276C61.5444 67.6995 65.184 59.9049 65.184 50.784H51.184ZM45.4323 63.1644C41.467 66.6105 36.5274 68.456 30.152 68.456V82.456C39.5206 82.456 47.829 79.6295 54.6157 73.7316L45.4323 63.1644ZM30.152 68.456C24.9441 68.456 21.3892 67.0288 18.8206 64.7011L9.41936 75.0749C15.0428 80.1712 22.1759 82.456 30.152 82.456V68.456ZM18.8206 64.7011C16.293 62.4104 14.976 59.545 14.976 55.488H0.976C0.976 63.207 3.75502 69.9416 9.41936 75.0749L18.8206 64.7011ZM14.976 55.488C14.976 51.8763 16.0375 49.1934 17.9976 46.9981L7.55444 37.6739C3.11453 42.6466 0.976 48.7317 0.976 55.488H14.976ZM17.9514 47.0493C19.9454 44.8598 22.0604 43.96 24.68 43.96V29.96C17.9556 29.96 12.1346 32.6442 7.6006 37.6227L17.9514 47.0493ZM24.68 43.96C26.7606 43.96 27.0966 44.4676 26.9363 44.3137L36.6317 34.2143C33.2714 30.9884 28.8714 29.96 24.68 29.96V43.96ZM27.036 44.4076C27.4402 44.7807 27.5126 44.9486 27.4726 44.873C27.4486 44.8279 27.3976 44.7196 27.3536 44.5521C27.3088 44.3815 27.28 44.1822 27.28 43.968H41.28C41.28 39.715 39.0212 36.4181 36.532 34.1204L27.036 44.4076ZM27.28 43.968C27.28 43.439 27.4289 42.215 28.4225 41.0227L39.1775 49.9853C40.8111 48.025 41.28 45.777 41.28 43.968H27.28ZM27.9756 41.6211C28.4306 40.9387 29.2216 40.0966 30.4474 39.5394C31.6823 38.9781 32.8652 38.9302 33.734 39.0544L31.754 52.9136C33.0708 53.1017 34.6537 53.0059 36.2406 52.2846C37.8184 51.5674 38.9134 50.4533 39.6244 49.3869L27.9756 41.6211ZM32.744 38.984C27.6003 38.984 23.0982 41.0219 19.5947 44.7256L29.7653 54.3464C30.7418 53.3141 31.6157 52.984 32.744 52.984V38.984ZM19.5909 44.7296C16.1215 48.4032 14.416 52.9675 14.416 57.984H28.416C28.416 56.3445 28.8865 55.2768 29.7691 54.3424L19.5909 44.7296ZM14.416 57.984C14.416 62.46 15.8366 66.7201 19.1543 70.0378L29.0537 60.1383C28.7874 59.8719 28.416 59.396 28.416 57.984H14.416ZM19.3341 70.2113C22.6632 73.3108 26.8165 74.68 31.208 74.68V60.68C29.8395 60.68 29.2568 60.3212 28.8739 59.9647L19.3341 70.2113ZM31.208 74.68C37.0237 74.68 42.2213 72.6145 46.2956 68.4432L36.2804 58.6608C34.9787 59.9935 33.4563 60.68 31.208 60.68V74.68ZM46.2377 68.5017C50.4211 64.3184 52.416 58.9938 52.416 53.088H38.416C38.416 55.6302 37.6589 57.2816 36.3383 58.6022L46.2377 68.5017ZM52.416 53.088C52.416 49.7352 51.5578 45.4621 50.2472 40.6784L36.7448 44.3776C37.9942 48.9379 38.416 51.7048 38.416 53.088H52.416ZM50.2535 40.7016C48.9877 36.0181 48.3423 32.9332 48.1492 31.195L34.2348 32.741C34.5537 35.6108 35.4443 39.5659 36.7385 44.3544L50.2535 40.7016ZM42.3428 25.0632C37.4537 24.2484 33.9309 22.6981 31.4175 20.7138L22.7425 31.7022C27.5251 35.4779 33.4103 37.7676 40.0412 38.8728L42.3428 25.0632ZM31.4175 20.7138C28.9093 18.7337 28.608 17.3473 28.608 16.512H14.608C14.608 22.8447 17.9547 27.9223 22.7425 31.7022L31.4175 20.7138ZM28.608 16.512C28.608 15.5901 28.8469 15.0735 29.3233 14.5619L19.0767 5.02207C16.0971 8.22247 14.608 12.1859 14.608 16.512H28.608ZM29.3233 14.5619C29.7572 14.0958 30.0081 13.9583 30.0382 13.9429C30.049 13.9374 30.0127 13.9569 29.9341 13.9764C29.8536 13.9963 29.7622 14.008 29.672 14.008V0.00799561C25.2396 0.00799561 21.6836 2.22212 19.0767 5.02207L29.3233 14.5619ZM29.672 14.008C29.6197 14.008 28.2787 14.0246 26.8698 12.8607C25.2048 11.4853 24.88 9.69273 24.88 8.832H38.88C38.88 6.75526 38.1871 4.05068 35.7862 2.06726C33.6413 0.295407 31.1963 0.00799561 29.672 0.00799561V14.008ZM24.88 8.832C24.88 8.73529 24.884 8.66362 24.8871 8.6209C24.8903 8.57774 24.8934 8.55491 24.8934 8.55487C24.8935 8.55451 24.8912 8.57097 24.8849 8.60582C24.8786 8.64046 24.8689 8.68934 24.8547 8.75351L38.5213 11.7905C38.7078 10.9512 38.88 9.92164 38.88 8.832H24.88ZM24.7421 9.40374C24.6382 10.2346 24.592 11.0706 24.592 11.904H38.592C38.592 11.5854 38.6098 11.3334 38.6339 11.1403L24.7421 9.40374ZM24.592 11.904C24.592 16.4946 25.7364 20.8276 28.2189 24.6469L39.9571 17.0171C39.1116 15.7164 38.592 14.0974 38.592 11.904H24.592ZM28.2861 24.7483C30.8343 28.5234 34.3373 31.2753 38.5685 32.9858L43.8155 20.0062C42.0307 19.2847 40.7977 18.2605 39.8899 16.9157L28.2861 24.7483ZM48.1573 27.1925C48.5758 23.0068 50.1334 19.993 52.7 17.6747L43.316 7.28528C37.9466 12.135 34.9602 18.4652 34.2267 25.7995L48.1573 27.1925ZM52.7044 17.6707C55.2804 15.3401 58.6214 14.008 63.272 14.008V0.00799561C55.6346 0.00799561 48.7996 2.32391 43.3116 7.28925L52.7044 17.6707ZM63.272 14.008C66.5993 14.008 68.4825 14.6938 69.5317 15.4019L77.3643 3.79806C73.2935 1.05024 68.3927 0.00799561 63.272 0.00799561V14.008ZM69.5981 15.4462C70.158 15.8149 70.2996 16.0571 70.3171 16.0879C70.3305 16.1114 70.3413 16.1354 70.352 16.1775C70.3634 16.2226 70.384 16.3268 70.384 16.512H84.384C84.384 11.0346 81.6764 6.63719 77.2979 3.7538L69.5981 15.4462ZM52.3625 34.6123C57.758 34.0649 62.7462 32.4359 67.1937 29.6356L59.7343 17.7884C57.2698 19.3401 54.386 20.3351 50.9495 20.6837L52.3625 34.6123ZM67.1937 29.6356C71.4222 26.9732 75.648 22.7596 75.648 16.608H61.648C61.648 16.4434 61.6786 16.289 61.7183 16.1757C61.7549 16.0713 61.7744 16.0723 61.6975 16.1777C61.5173 16.4246 60.9864 17 59.7343 17.7884L67.1937 29.6356ZM75.648 16.608C75.648 13.4104 74.3405 10.3544 71.6288 8.22377L62.9792 19.2322C62.631 18.9586 62.2434 18.5249 61.9687 17.9362C61.7006 17.3616 61.648 16.8719 61.648 16.608H75.648ZM71.6288 8.22376C69.1796 6.29939 66.3303 5.672 63.752 5.672V19.672C63.9378 19.672 63.9147 19.6949 63.7492 19.6458C63.567 19.5916 63.2813 19.4695 62.9793 19.2322L71.6288 8.22376ZM63.752 5.672C58.3624 5.672 53.7536 7.98312 50.17 11.8496L60.438 21.3663C61.7184 19.9849 62.7416 19.672 63.752 19.672V5.672ZM50.17 11.8496C46.2731 16.0542 44.656 21.4209 44.656 27.168H58.656C58.656 24.0831 59.4709 22.4098 60.438 21.3664L50.17 11.8496ZM44.656 27.168V27.648H58.656V27.168H44.656ZM106.082 50.784L111.565 55.135L112.689 53.7185L112.987 51.9348L106.082 50.784ZM90.53 65.856L94.6472 71.5172L94.6585 71.5089L90.53 65.856ZM66.05 68.832L60.8773 73.5483L60.9498 73.6278L61.0247 73.705L66.05 68.832ZM67.202 46.848L61.1243 43.375L61.1169 43.388L61.1096 43.401L67.202 46.848ZM77.954 34.272L82.3072 39.7538L82.3317 39.7343L82.3561 39.7146L77.954 34.272ZM97.058 31.488L92.0122 36.3398L92.0597 36.3892L92.1083 36.4377L97.058 31.488ZM87.65 46.176L84.0485 52.1785L84.3904 52.3836L84.7534 52.5486L87.65 46.176ZM87.074 44.256L82.4235 39.0241L82.2697 39.1608L82.1243 39.3062L87.074 44.256ZM90.05 40.128L95.9765 43.8532L96 43.8158L96.023 43.7781L90.05 40.128ZM84.77 37.824L89.8362 42.6545L84.77 37.824ZM77.57 48L71.4098 44.6755L71.3893 44.7136L71.3692 44.752L77.57 48ZM103.01 47.712L98.0603 42.7622L97.8386 42.9839L97.6376 43.2245L103.01 47.712ZM104.642 47.808L99.6923 52.7577L100.302 53.3671L101.041 53.8105L104.642 47.808ZM105.506 48.576L100.04 52.9489L100.526 53.5562L101.133 54.0421L105.506 48.576ZM106.082 49.632L99.1524 50.6219L99.1639 50.7025L99.1772 50.7828L106.082 49.632ZM100.599 46.433C96.292 51.8604 91.5572 56.4377 86.4015 60.2031L94.6585 71.5089C100.895 66.9543 106.528 61.4836 111.565 55.135L100.599 46.433ZM86.4128 60.1948C81.5539 63.7286 77.5933 65 74.402 65V79C81.4507 79 88.2421 76.1754 94.6472 71.5172L86.4128 60.1948ZM74.402 65C72.3752 65 71.5499 64.4484 71.0753 63.959L61.0247 73.705C64.6461 77.4396 69.3888 79 74.402 79V65ZM71.2227 64.1157C70.6575 63.4958 70.074 62.4292 70.074 60.192H56.074C56.074 65.1228 57.4745 69.8162 60.8773 73.5483L71.2227 64.1157ZM70.074 60.192C70.074 57.7456 70.9187 54.494 73.2944 50.295L61.1096 43.401C57.9813 48.93 56.074 54.5744 56.074 60.192H70.074ZM73.2797 50.321C75.6635 46.1493 78.6676 42.644 82.3072 39.7538L73.6008 28.7902C68.5364 32.812 64.3725 37.6907 61.1243 43.375L73.2797 50.321ZM82.3561 39.7146C85.9401 36.8157 88.6227 35.992 90.53 35.992V21.992C84.3734 21.992 78.6719 24.6883 73.5519 28.8294L82.3561 39.7146ZM90.53 35.992C91.7727 35.992 91.9826 36.309 92.0122 36.3398L102.104 26.6362C98.9334 23.339 94.7913 21.992 90.53 21.992V35.992ZM92.1083 36.4377C92.3948 36.7243 92.4637 36.8803 92.466 36.8856C92.4685 36.891 92.4639 36.8813 92.46 36.8628C92.4562 36.8446 92.458 36.8419 92.458 36.864H106.458C106.458 32.7579 104.72 29.2505 102.008 26.5382L92.1083 36.4377ZM92.458 36.864C92.458 36.6809 92.5765 37.226 91.2886 38.5944L101.483 48.1896C104.291 45.206 106.458 41.3991 106.458 36.864H92.458ZM91.2886 38.5944C90.6752 39.2462 90.2538 39.5175 90.0603 39.6172C89.9029 39.6983 89.9228 39.656 90.05 39.656V53.656C94.7913 53.656 98.6221 51.2297 101.483 48.1896L91.2886 38.5944ZM90.05 39.656C89.9957 39.656 90.2076 39.6493 90.5466 39.8034L84.7534 52.5486C86.5004 53.3427 88.3123 53.656 90.05 53.656V39.656ZM91.2515 40.1735C91.391 40.2572 91.9292 40.5941 92.4784 41.308C93.0919 42.1056 93.69 43.3539 93.69 44.928H79.69C79.69 49.1502 82.7482 51.3982 84.0485 52.1785L91.2515 40.1735ZM93.69 44.928C93.69 46.3984 93.204 47.4935 92.8637 48.089C92.5229 48.6855 92.1735 49.056 92.0237 49.2058L82.1243 39.3062C81.594 39.8365 79.69 41.8002 79.69 44.928H93.69ZM91.7246 49.4879C92.6313 48.6818 93.4018 47.6638 93.9282 46.9336C94.5446 46.0786 95.2319 45.0377 95.9765 43.8532L84.1235 36.4028C83.4601 37.4583 82.9474 38.2254 82.5718 38.7464C82.3847 39.0058 82.2628 39.1608 82.199 39.2377C82.1131 39.3411 82.1967 39.2257 82.4235 39.0241L91.7246 49.4879ZM96.023 43.7781C96.8449 42.4331 97.5747 41.0752 98.1166 39.7451C98.6246 38.4984 99.162 36.8137 99.162 34.944H85.162C85.162 34.5388 85.2211 34.2913 85.2302 34.2538C85.2414 34.2078 85.2293 34.2716 85.1514 34.4629C84.9893 34.8607 84.6631 35.5189 84.077 36.4778L96.023 43.7781ZM99.162 34.944C99.162 33.5818 98.8593 31.2552 97.0176 29.26C95.0782 27.159 92.6233 26.696 91.01 26.696V40.696C90.1647 40.696 88.2858 40.441 86.7304 38.756C85.2727 37.1768 85.162 35.4742 85.162 34.944H99.162ZM91.01 26.696C88.2558 26.696 85.9727 27.8732 84.4359 28.8899C82.7934 29.9764 81.2104 31.4135 79.7038 32.9935L89.8362 42.6545C90.9536 41.4825 91.7226 40.8556 92.1601 40.5661C92.3666 40.4296 92.3908 40.4411 92.2456 40.4963C92.1003 40.5516 91.6655 40.696 91.01 40.696V26.696ZM79.7038 32.9935C76.5725 36.2775 73.8235 40.2031 71.4098 44.6755L83.7302 51.3245C85.6685 47.7329 87.7195 44.8744 89.8362 42.6545L79.7038 32.9935ZM71.3692 44.752C68.9656 49.3406 67.402 54.0386 67.402 58.656H81.402C81.402 57.1294 81.9504 54.7234 83.7708 51.248L71.3692 44.752ZM67.402 58.656C67.402 61.4035 68.0292 64.7683 70.5204 67.4512C73.1026 70.2319 76.5125 71.032 79.394 71.032V57.032C79.1713 57.032 79.2748 56.9998 79.5751 57.1076C79.9143 57.2294 80.3702 57.484 80.7796 57.9248C81.6068 58.8157 81.402 59.4925 81.402 58.656H67.402ZM79.394 71.032C84.6414 71.032 89.6539 68.9004 94.2696 65.7107C98.9096 62.5042 103.608 57.915 108.382 52.1995L97.6376 43.2245C93.3238 48.389 89.5424 51.9598 86.3104 54.1933C83.0541 56.4436 80.8026 57.032 79.394 57.032V71.032ZM107.96 52.6617C107.344 53.2774 106.605 53.75 105.804 54.0503C105.024 54.3426 104.317 54.424 103.778 54.424V40.424C101.958 40.424 99.7974 41.0251 98.0603 42.7622L107.96 52.6617ZM103.778 54.424C102.974 54.424 102.156 54.2567 101.391 53.9167C100.642 53.5839 100.083 53.148 99.6923 52.7577L109.592 42.8583C108.211 41.4774 106.204 40.424 103.778 40.424V54.424ZM101.041 53.8105C100.58 53.5343 100.253 53.2149 100.04 52.9489L110.972 44.2031C110.247 43.2971 109.344 42.4657 108.243 41.8055L101.041 53.8105ZM101.133 54.0421C100.584 53.603 100.103 53.0415 99.7447 52.384C99.3922 51.7376 99.2235 51.1202 99.1524 50.6219L113.012 48.6421C112.724 46.631 111.74 44.5985 109.879 43.1099L101.133 54.0421ZM99.1772 50.7828C99.1143 50.4049 99.1143 50.0111 99.1772 49.6332L112.987 51.9348C113.178 50.7889 113.178 49.6271 112.987 48.4812L99.1772 50.7828ZM142.024 48.48L136.2 52.3629L136.2 52.3629L142.024 48.48ZM142.408 50.784L147.698 55.3685L148.609 54.3173L149.049 52.9976L142.408 50.784ZM127.048 65.76L131.397 71.2456L131.417 71.2294L131.437 71.2131L127.048 65.76ZM109.192 69.984L103.531 74.1012L103.638 74.2476L103.752 74.3884L109.192 69.984ZM123.208 39.456L128.332 44.2259L120.798 32.8839L123.208 39.456ZM114.28 40.32L115.148 33.3741L110.993 32.8546L108.57 36.271L114.28 40.32ZM106.12 50.784L107.271 57.6888L109.792 57.2686L111.449 55.3233L106.12 50.784ZM103.72 49.824L98.5766 54.572L98.7665 54.7777L98.9723 54.9676L103.72 49.824ZM103.048 47.712L97.763 43.1222L97.284 43.6738L96.9292 44.3125L103.048 47.712ZM109.672 38.4L115.648 42.0461L118.694 37.0536L114.323 33.1681L109.672 38.4ZM111.4 26.688L106.521 21.669L111.4 26.688ZM119.368 32.256L113.048 29.2465L109.019 37.7086L118.277 39.1703L119.368 32.256ZM131.944 31.008V24.008H130.379L128.964 24.6743L131.944 31.008ZM134.248 32.928L128.246 36.5295L128.246 36.5295L134.248 32.928ZM134.92 36.96L129.971 32.0102L129.726 32.2552L129.506 32.5232L134.92 36.96ZM124.744 50.88L130.606 54.7064L130.618 54.6879L130.63 54.6694L124.744 50.88ZM129.064 57.888L124.717 52.4018L124.691 52.422L124.666 52.4424L129.064 57.888ZM139.336 47.712L135.453 41.8876L134.627 42.4387L133.986 43.1979L139.336 47.712ZM140.2 54.328C139.199 54.328 138.236 54.033 137.446 53.5344C136.72 53.0755 136.34 52.5735 136.2 52.3629L147.849 44.5971C146.489 42.5572 143.954 40.328 140.2 40.328V54.328ZM136.2 52.3629C136.007 52.0737 135.726 51.5399 135.6 50.7828C135.468 49.9951 135.549 49.225 135.767 48.5704L149.049 52.9976C150.09 49.8751 149.368 46.8766 147.849 44.5971L136.2 52.3629ZM137.118 46.1995C132.365 51.684 127.542 56.3765 122.659 60.3069L131.437 71.2131C137.05 66.6955 142.467 61.404 147.698 55.3685L137.118 46.1995ZM122.7 60.2744C117.754 64.1947 114.926 65 113.8 65V79C119.843 79 125.846 75.6453 131.397 71.2456L122.7 60.2744ZM113.8 65C113.599 65 113.702 64.9675 113.966 65.0829C114.094 65.1391 114.229 65.2171 114.357 65.3151C114.484 65.4126 114.575 65.5079 114.633 65.5796L103.752 74.3884C106.374 77.6281 110.054 79 113.8 79V65ZM114.853 65.8668C114.789 65.7783 114.656 65.5925 114.656 64.992H100.656C100.656 68.2315 101.547 71.3737 103.531 74.1012L114.853 65.8668ZM114.656 64.992C114.656 63.9405 115.189 61.6645 117.523 57.8331C119.776 54.1334 123.32 49.6082 128.332 44.2259L118.085 34.6861C112.728 40.4398 108.497 45.7386 105.566 50.5509C102.715 55.2315 100.656 60.1555 100.656 64.992H114.656ZM120.798 32.8839C119.781 33.2569 118.442 33.512 116.68 33.512V47.512C119.783 47.512 122.795 47.0631 125.618 46.0281L120.798 32.8839ZM116.68 33.512C116.536 33.512 116.071 33.4894 115.148 33.3741L113.412 47.2659C114.537 47.4066 115.672 47.512 116.68 47.512V33.512ZM108.57 36.271C106.2 39.6135 103.608 42.9383 100.792 46.2447L111.449 55.3233C114.52 51.7177 117.369 48.0665 119.99 44.369L108.57 36.271ZM104.969 43.8792C105.981 43.7106 106.885 43.8771 107.544 44.1407C108.142 44.38 108.443 44.6573 108.468 44.6804L98.9723 54.9676C100.64 56.5073 103.531 58.3121 107.271 57.6888L104.969 43.8792ZM108.864 45.076C108.883 45.0965 108.989 45.2126 109.127 45.4263C109.263 45.6373 109.476 46.0142 109.647 46.5496C110.041 47.7898 110.062 49.5005 109.167 51.1115L96.9292 44.3125C94.2287 49.1734 97.4181 53.3169 98.5766 54.572L108.864 45.076ZM108.333 52.3018C110.776 49.4891 113.21 46.0417 115.648 42.0461L103.697 34.7539C101.527 38.3103 99.5444 41.0709 97.763 43.1222L108.333 52.3018ZM114.323 33.1681C114.534 33.3561 114.733 33.6274 114.855 33.9256C114.967 34.1985 114.944 34.3221 114.944 34.176H100.944C100.944 37.6092 102.127 41.0587 105.022 43.6319L114.323 33.1681ZM114.944 34.176C114.944 33.6328 115.085 32.8686 116.28 31.707L106.521 21.669C103.108 24.9874 100.944 29.2152 100.944 34.176H114.944ZM116.28 31.707C117.71 30.3161 118.421 30.328 118.504 30.328V16.328C113.724 16.328 109.698 18.5799 106.521 21.669L116.28 31.707ZM118.504 30.328C118.414 30.328 117.049 30.3091 115.73 29.0358C114.366 27.7183 114.288 26.2627 114.288 26.016H128.288C128.288 23.9773 127.747 21.1776 125.454 18.9642C123.208 16.7949 120.451 16.328 118.504 16.328V30.328ZM114.288 26.016C114.288 25.8068 114.321 25.9613 114.118 26.6214C113.927 27.2421 113.591 28.1066 113.048 29.2465L125.688 35.2655C127.049 32.4071 128.288 29.1354 128.288 26.016H114.288ZM118.277 39.1703C119.885 39.4243 121.532 39.544 123.208 39.544V25.544C122.197 25.544 121.284 25.4717 120.46 25.3417L118.277 39.1703ZM123.208 39.544C127.403 39.544 131.46 38.9721 134.925 37.3417L128.964 24.6743C128.076 25.0919 126.309 25.544 123.208 25.544V39.544ZM131.944 38.008C130.251 38.008 129.104 37.2729 128.615 36.8655C128.176 36.5001 128.086 36.2639 128.246 36.5295L140.251 29.3265C139.36 27.8417 136.782 24.008 131.944 24.008V38.008ZM128.246 36.5295C128.353 36.7081 128.426 36.8449 128.474 36.9421C128.523 37.0401 128.537 37.0822 128.534 37.0722C128.53 37.0633 128.5 36.9783 128.469 36.8252C128.438 36.6721 128.4 36.4231 128.4 36.096H142.4C142.4 33.3431 141.225 30.9502 140.251 29.3265L128.246 36.5295ZM128.4 36.096C128.4 34.7407 128.825 33.7093 129.161 33.1045C129.49 32.5126 129.829 32.1517 129.971 32.0102L139.87 41.9098C140.575 41.2052 142.4 39.2023 142.4 36.096H128.4ZM129.506 32.5232C125.573 37.3232 122.021 42.1786 118.859 47.0906L130.63 54.6694C133.483 50.2374 136.716 45.8128 140.335 41.3968L129.506 32.5232ZM118.883 47.0536C117.279 49.5107 115.952 51.7947 115.003 53.8545C114.133 55.7413 113.232 58.1621 113.232 60.672H127.232C127.232 61.2619 127.083 61.0907 127.718 59.7135C128.273 58.5093 129.202 56.8573 130.606 54.7064L118.883 47.0536ZM113.232 60.672C113.232 62.3055 113.696 64.7794 115.805 66.7376C117.816 68.6048 120.173 68.92 121.576 68.92V54.92C122.084 54.92 123.769 55.0272 125.331 56.4784C126.992 58.0206 127.232 59.8705 127.232 60.672H113.232ZM121.576 68.92C124.115 68.92 126.374 67.9589 128.015 67.0753C129.784 66.1226 131.613 64.8273 133.463 63.3336L124.666 52.4424C123.187 53.6367 122.104 54.3574 121.378 54.7487C121.023 54.9395 120.847 55.0009 120.828 55.007C120.799 55.0166 121.074 54.92 121.576 54.92V68.92ZM133.412 63.3742C137.244 60.3375 140.997 56.5982 144.686 52.2261L133.986 43.1979C130.763 47.0178 127.669 50.0625 124.717 52.4018L133.412 63.3742ZM143.219 53.5364C143.218 53.5371 143.026 53.6685 142.683 53.8207C142.504 53.9004 142.217 54.0156 141.842 54.1156C141.476 54.2132 140.909 54.328 140.2 54.328V40.328C138.693 40.328 137.533 40.7892 136.997 41.0273C136.367 41.3075 135.838 41.6309 135.453 41.8876L143.219 53.5364ZM178.689 47.712L174.931 41.8064L174.257 42.2357L173.696 42.8062L178.689 47.712ZM180.898 48.192L185.847 43.2423L185.847 43.2422L180.898 48.192ZM181.762 50.784L186.868 55.5716L188.234 54.1148L188.626 52.1568L181.762 50.784ZM164.29 59.904L165.662 53.0399L161.495 52.2065L158.833 55.5193L164.29 59.904ZM136.354 69.12L131.242 73.9021L131.321 73.9873L131.404 74.0697L136.354 69.12ZM137.697 47.232L131.625 43.7503L137.697 47.232ZM147.49 35.424L143.072 29.994L147.49 35.424ZM157.57 30.816V37.816H159.658L161.406 36.6712L157.57 30.816ZM170.626 32.256L164.907 36.2928L164.935 36.3332L164.964 36.3732L170.626 32.256ZM168.514 53.664L162.464 50.1417L155.563 61.994L169.21 60.6293L168.514 53.664ZM162.178 52.032L158.109 57.7281L164.253 62.1171L168.165 55.6582L162.178 52.032ZM160.833 34.752L160.956 27.7531L159.318 27.7243L157.837 28.4258L160.833 34.752ZM156.609 37.824L151.87 32.6725L150.614 33.8279L150.031 35.4318L156.609 37.824ZM157.857 46.848L164.118 43.7175L164.118 43.7175L157.857 46.848ZM158.242 57.408L163.556 61.9635L168.269 56.4655L162.614 51.9419L158.242 57.408ZM153.633 51.264L147.167 53.9451L147.207 54.0414L147.25 54.1366L153.633 51.264ZM152.001 42.912H159.001V21.7969L146.388 38.7304L152.001 42.912ZM182.448 53.6176C181.427 54.2673 179.92 54.6922 178.283 54.3362C176.88 54.0313 176.115 53.3087 175.948 53.1417L185.847 43.2422C184.912 42.3073 183.395 41.1207 181.257 40.6558C178.883 40.1398 176.656 40.7087 174.931 41.8064L182.448 53.6176ZM175.948 53.1417C175.71 52.9041 175.308 52.4088 175.049 51.6296C174.779 50.8196 174.773 50.0332 174.897 49.4112L188.626 52.1568C189.333 48.6212 188.057 45.4521 185.847 43.2423L175.948 53.1417ZM176.655 45.9964C171.377 51.6264 167.701 53 165.538 53V67C173.486 67 180.626 62.2296 186.868 55.5716L176.655 45.9964ZM165.538 53C165.482 53 165.441 52.9991 165.413 52.9982C165.385 52.9972 165.374 52.9963 165.378 52.9966C165.383 52.9969 165.408 52.999 165.453 53.0048C165.497 53.0105 165.568 53.0211 165.662 53.0399L162.917 66.7681C163.868 66.9583 164.793 67 165.538 67V53ZM158.833 55.5193C156.384 58.5674 153.744 60.9448 150.931 62.7344L158.448 74.5456C162.675 71.8552 166.435 68.4086 169.746 64.2887L158.833 55.5193ZM150.931 62.7344C148.324 64.3939 146.088 65 144.13 65V79C149.211 79 154.016 77.3661 158.448 74.5456L150.931 62.7344ZM144.13 65C142.321 65 141.652 64.5186 141.303 64.1702L131.404 74.0697C134.895 77.5614 139.41 79 144.13 79V65ZM141.465 64.3379C141.148 63.9989 140.57 63.1505 140.57 60.864H126.57C126.57 65.6175 127.847 70.2731 131.242 73.9021L141.465 64.3379ZM140.57 60.864C140.57 58.1028 141.453 54.7546 143.77 50.7137L131.625 43.7503C128.438 49.3094 126.57 55.0491 126.57 60.864H140.57ZM143.77 50.7137C146.153 46.5583 148.882 43.3148 151.907 40.854L143.072 29.994C138.545 33.6772 134.746 38.3057 131.625 43.7503L143.77 50.7137ZM151.907 40.854C155.222 38.1572 156.987 37.816 157.473 37.816V23.816C152.2 23.816 147.309 26.5467 143.072 29.994L151.907 40.854ZM157.473 37.816H157.57V23.816H157.473V37.816ZM161.406 36.6712C162.013 36.2734 162.796 35.992 164.001 35.992V21.992C160.343 21.992 156.838 22.9265 153.733 24.9608L161.406 36.6712ZM164.001 35.992C164.281 35.992 164.465 36.0184 164.572 36.0412C164.675 36.0633 164.718 36.0844 164.723 36.0871C164.727 36.089 164.732 36.0908 164.748 36.1044C164.765 36.1198 164.822 36.1723 164.907 36.2928L176.344 28.2192C173.376 24.0147 168.939 21.992 164.001 21.992V35.992ZM164.964 36.3732C165.561 37.1933 165.93 38.1889 165.93 39.648H179.93C179.93 35.4751 178.762 31.5427 176.287 28.1388L164.964 36.3732ZM165.93 39.648C165.93 42.3276 165.003 45.7811 162.464 50.1417L174.563 57.1863C177.912 51.4349 179.93 45.5444 179.93 39.648H165.93ZM169.21 60.6293C174.759 60.0744 179.588 56.7854 183.683 52.6178L173.696 42.8062C170.623 45.9346 168.668 46.6136 167.817 46.6987L169.21 60.6293ZM168.165 55.6582C171.221 50.6119 173.305 45.3795 173.305 40.224H159.305C159.305 41.7245 158.638 44.3641 156.19 48.4058L168.165 55.6582ZM173.305 40.224C173.305 37.3113 172.554 33.885 169.887 31.2183C167.242 28.5734 163.838 27.8036 160.956 27.7531L160.711 41.7509C161.477 41.7644 160.809 41.9386 159.988 41.1177C159.603 40.7332 159.41 40.3389 159.331 40.1031C159.262 39.901 159.305 39.9027 159.305 40.224H173.305ZM157.837 28.4258C155.715 29.4308 153.711 30.9787 151.87 32.6725L161.349 42.9755C162.708 41.7253 163.52 41.2252 163.83 41.0782L157.837 28.4258ZM150.031 35.4318C149.401 37.1652 149.225 38.9444 149.225 40.512H163.225C163.225 40.2354 163.242 40.0764 163.251 40.0139C163.26 39.949 163.255 40.0319 163.188 40.2162L150.031 35.4318ZM149.225 40.512C149.225 43.8328 150.113 47.0118 151.597 49.9785L164.118 43.7175C163.426 42.3322 163.225 41.2872 163.225 40.512H149.225ZM151.597 49.9785C153.141 53.0667 155.293 55.7171 158.109 57.7281L166.246 46.3359C165.478 45.7868 164.75 44.9812 164.118 43.7175L151.597 49.9785ZM148.354 70.456C154.586 70.456 159.657 66.5123 163.556 61.9635L152.927 52.8525C149.914 56.3677 148.393 56.456 148.354 56.456V70.456ZM162.614 51.9419C161.676 51.1914 160.779 50.0841 160.017 48.3914L147.25 54.1366C148.792 57.5639 150.967 60.5526 153.869 62.8741L162.614 51.9419ZM160.1 48.5829C159.344 46.7598 159.001 45.0123 159.001 43.296H145.001C145.001 46.9557 145.747 50.5202 147.167 53.9451L160.1 48.5829ZM159.001 43.296V42.912H145.001V43.296H159.001ZM146.388 38.7304C141.366 45.4715 137.993 52.4335 137.993 59.328H151.993C151.993 56.8785 153.293 52.8965 157.615 47.0936L146.388 38.7304ZM137.993 59.328C137.993 61.4734 138.401 64.3815 140.405 66.8429C142.632 69.58 145.73 70.456 148.354 70.456V56.456C148.497 56.456 148.943 56.477 149.536 56.7202C150.173 56.9809 150.786 57.4198 151.262 58.0051C152.146 59.0905 151.993 59.9346 151.993 59.328H137.993ZM174.096 70.176L168.497 74.376L168.615 74.5339L168.742 74.685L174.096 70.176ZM179.089 46.56L172.828 43.4295L172.823 43.4388L172.818 43.4481L179.089 46.56ZM193.201 22.752L198.921 26.7868L193.201 22.752ZM209.329 17.952L205.128 12.352L204.608 12.7424L204.168 13.2219L209.329 17.952ZM192.624 41.76L198.707 45.2243L198.712 45.2157L198.717 45.207L192.624 41.76ZM191.857 57.984L196.458 63.259L196.49 63.2315L196.521 63.2036L191.857 57.984ZM201.745 47.712L196.795 42.7622L196.611 42.9461L196.441 43.143L201.745 47.712ZM204.241 48.576L198.416 52.4589L198.606 52.7437L198.823 53.0087L204.241 48.576ZM204.816 50.784L210.22 55.2339L211.224 54.0144L211.607 52.4818L204.816 50.784ZM178.225 65C178.191 65 178.399 64.997 178.726 65.1412C179.068 65.2924 179.316 65.5072 179.451 65.6671L168.742 74.685C171.222 77.6298 174.635 79 178.225 79V65ZM179.697 65.976C179.783 66.0909 179.781 66.142 179.752 66.0377C179.718 65.9183 179.656 65.6227 179.656 65.088H165.656C165.656 68.2316 166.375 71.5478 168.497 74.376L179.697 65.976ZM179.656 65.088C179.656 64.3925 179.898 62.7899 180.877 59.9677C181.819 57.2559 183.291 53.839 185.359 49.6719L172.818 43.4481C170.598 47.921 168.854 51.9121 167.652 55.3763C166.487 58.7301 165.656 62.0715 165.656 65.088H179.656ZM185.349 49.6905C189.561 41.2675 194.088 33.6382 198.921 26.7868L187.48 18.7172C182.201 26.2018 177.32 34.4445 172.828 43.4295L185.349 49.6905ZM198.921 26.7868C201.369 23.3154 203.259 20.9735 204.625 19.5701C205.314 18.8617 205.697 18.5733 205.797 18.507C206.033 18.351 205.215 19 203.665 19V5C201.154 5 199.18 6.097 198.064 6.83705C196.812 7.66665 195.647 8.72232 194.592 9.80589C192.47 11.9865 190.088 15.0206 187.48 18.7172L198.921 26.7868ZM203.665 19C203.468 19 203.286 18.9772 203.128 18.9415C202.972 18.9062 202.86 18.863 202.795 18.8338C202.675 18.7791 202.748 18.7869 203 19.0148L212.393 8.63325C210.217 6.66423 207.273 5 203.665 5V19ZM203 19.0148C203.369 19.3488 203.374 19.4269 203.253 19.2304C203.127 19.0262 202.712 18.2714 202.712 17.088H216.712C216.712 12.9807 214.023 10.1083 212.393 8.63325L203 19.0148ZM202.712 17.088C202.712 16.5097 202.809 15.6732 203.22 14.749C203.649 13.7843 204.316 12.9611 205.128 12.352L213.529 23.552C215.909 21.7666 216.712 19.1799 216.712 17.088H202.712ZM204.168 13.2219C198.08 19.8635 192.215 28.269 186.532 38.313L198.717 45.207C204.042 35.795 209.313 28.3285 214.489 22.6821L204.168 13.2219ZM186.542 38.2957C183.734 43.2264 181.537 47.4471 180.022 50.8994C178.651 54.026 177.368 57.5203 177.368 60.576H191.368C191.368 60.7517 191.462 59.67 192.843 56.5246C194.08 53.7049 196.011 49.9576 198.707 45.2243L186.542 38.2957ZM177.368 60.576C177.368 61.9795 177.684 64.3363 179.551 66.3472C181.509 68.4559 183.983 68.92 185.617 68.92V54.92C186.418 54.92 188.268 55.1601 189.81 56.8208C191.261 58.3837 191.368 60.0686 191.368 60.576H177.368ZM185.617 68.92C188.343 68.92 190.626 67.581 191.775 66.8566C193.249 65.9271 194.827 64.6816 196.458 63.259L187.255 52.709C185.878 53.9104 184.912 54.6329 184.306 55.0154C184.006 55.2047 183.922 55.2283 184.022 55.188C184.067 55.1698 184.661 54.92 185.617 54.92V68.92ZM196.521 63.2036C199.82 60.2554 203.331 56.5953 207.048 52.281L196.441 43.143C192.99 47.1487 189.909 50.3366 187.192 52.7644L196.521 63.2036ZM206.694 52.6618C206.079 53.2774 205.339 53.75 204.538 54.0503C203.759 54.3426 203.052 54.424 202.512 54.424V40.424C200.693 40.424 198.532 41.0251 196.795 42.7622L206.694 52.6618ZM202.512 54.424C201.337 54.424 200.305 54.0454 199.542 53.5364C198.851 53.0757 198.511 52.6015 198.416 52.4589L210.065 44.6931C208.872 42.904 206.422 40.424 202.512 40.424V54.424ZM198.823 53.0087C198.595 52.7307 198.247 52.203 198.043 51.423C197.831 50.6087 197.849 49.7922 198.026 49.0862L211.607 52.4818C212.421 49.2277 211.397 46.2681 209.658 44.1433L198.823 53.0087ZM199.413 46.334C193.734 53.2296 188.959 58.1189 185.067 61.2241C180.94 64.5166 178.795 65 178.225 65V79C183.734 79 189.061 75.9474 193.798 72.1679C198.77 68.2011 204.251 62.4824 210.22 55.2339L199.413 46.334ZM197.159 70.176L191.559 74.376L191.677 74.5339L191.805 74.685L197.159 70.176ZM202.151 46.56L195.89 43.4295L195.885 43.4388L195.881 43.4481L202.151 46.56ZM216.263 22.752L221.983 26.7868L216.263 22.752ZM232.391 17.952L228.191 12.352L227.671 12.7424L227.231 13.2219L232.391 17.952ZM215.687 41.76L221.77 45.2243L221.775 45.2157L221.779 45.207L215.687 41.76ZM214.919 57.984L219.521 63.259L219.552 63.2315L219.583 63.2036L214.919 57.984ZM224.807 47.712L219.857 42.7622L219.673 42.9461L219.504 43.143L224.807 47.712ZM227.303 48.576L221.479 52.4589L221.669 52.7437L221.885 53.0087L227.303 48.576ZM227.879 50.784L233.283 55.2339L234.287 54.0144L234.67 52.4818L227.879 50.784ZM201.287 65C201.253 65 201.462 64.997 201.788 65.1412C202.13 65.2924 202.379 65.5072 202.513 65.6671L191.805 74.685C194.285 77.6298 197.698 79 201.287 79V65ZM202.759 65.976C202.845 66.0909 202.844 66.142 202.814 66.0377C202.781 65.9183 202.719 65.6227 202.719 65.088H188.719C188.719 68.2316 189.438 71.5478 191.559 74.376L202.759 65.976ZM202.719 65.088C202.719 64.3925 202.96 62.7899 203.94 59.9677C204.881 57.2559 206.353 53.839 208.421 49.6719L195.881 43.4481C193.661 47.921 191.917 51.9121 190.714 55.3763C189.55 58.7301 188.719 62.0715 188.719 65.088H202.719ZM208.412 49.6905C212.624 41.2675 217.15 33.6382 221.983 26.7868L210.543 18.7172C205.264 26.2018 200.382 34.4445 195.89 43.4295L208.412 49.6905ZM221.983 26.7868C224.432 23.3154 226.322 20.9735 227.687 19.5701C228.377 18.8617 228.76 18.5733 228.86 18.507C229.095 18.351 228.277 19 226.727 19V5C224.217 5 222.243 6.097 221.126 6.83705C219.874 7.66665 218.709 8.72232 217.655 9.80589C215.532 11.9865 213.15 15.0206 210.543 18.7172L221.983 26.7868ZM226.727 19C226.53 19 226.349 18.9772 226.191 18.9415C226.035 18.9062 225.922 18.863 225.858 18.8338C225.737 18.7791 225.811 18.7869 226.063 19.0148L235.455 8.63325C233.279 6.66423 230.335 5 226.727 5V19ZM226.063 19.0148C226.432 19.3488 226.437 19.4269 226.315 19.2304C226.189 19.0262 225.775 18.2714 225.775 17.088H239.775C239.775 12.9807 237.086 10.1083 235.455 8.63325L226.063 19.0148ZM225.775 17.088C225.775 16.5097 225.872 15.6732 226.282 14.749C226.711 13.7843 227.379 12.9611 228.191 12.352L236.591 23.552C238.971 21.7666 239.775 19.1799 239.775 17.088H225.775ZM227.231 13.2219C221.143 19.8635 215.277 28.269 209.595 38.313L221.779 45.207C227.105 35.795 232.375 28.3285 237.551 22.6821L227.231 13.2219ZM209.604 38.2957C206.796 43.2264 204.6 47.4471 203.085 50.8994C201.713 54.026 200.431 57.5203 200.431 60.576H214.431C214.431 60.7517 214.525 59.67 215.905 56.5246C217.142 53.7049 219.074 49.9576 221.77 45.2243L209.604 38.2957ZM200.431 60.576C200.431 61.9795 200.746 64.3363 202.613 66.3472C204.572 68.4559 207.045 68.92 208.679 68.92V54.92C209.481 54.92 211.33 55.1601 212.873 56.8208C214.324 58.3837 214.431 60.0686 214.431 60.576H200.431ZM208.679 68.92C211.405 68.92 213.689 67.581 214.838 66.8566C216.311 65.9271 217.89 64.6816 219.521 63.259L210.317 52.709C208.94 53.9104 207.975 54.6329 207.368 55.0154C207.068 55.2047 206.985 55.2283 207.084 55.188C207.129 55.1698 207.724 54.92 208.679 54.92V68.92ZM219.583 63.2036C222.883 60.2554 226.393 56.5953 230.11 52.281L219.504 43.143C216.053 47.1487 212.971 50.3366 210.255 52.7644L219.583 63.2036ZM229.757 52.6618C229.141 53.2774 228.402 53.75 227.601 54.0503C226.821 54.3426 226.114 54.424 225.575 54.424V40.424C223.755 40.424 221.594 41.0251 219.857 42.7622L229.757 52.6618ZM225.575 54.424C224.399 54.424 223.368 54.0454 222.604 53.5364C221.913 53.0757 221.574 52.6015 221.479 52.4589L233.127 44.6931C231.935 42.904 229.484 40.424 225.575 40.424V54.424ZM221.885 53.0087C221.658 52.7307 221.309 52.203 221.106 51.423C220.893 50.6087 220.912 49.7922 221.088 49.0862L234.67 52.4818C235.484 49.2277 234.459 46.2681 232.721 44.1433L221.885 53.0087ZM222.475 46.334C216.797 53.2296 212.021 58.1189 208.129 61.2241C204.003 64.5166 201.858 65 201.287 65V79C206.796 79 212.123 75.9474 216.861 72.1679C221.833 68.2011 227.313 62.4824 233.283 55.2339L222.475 46.334ZM272.829 48.672L266.666 51.9907L266.822 52.2808L267.005 52.5549L272.829 48.672ZM273.405 50.784L278.928 55.085L279.945 53.7794L280.27 52.1568L273.405 50.784ZM249.021 69.792L245.831 63.5613L243.969 64.515L242.935 66.3343L249.021 69.792ZM217.342 92.448L221.951 87.18L221.888 87.1244L221.823 87.0704L217.342 92.448ZM215.613 84.096L209.114 81.4963V81.4963L215.613 84.096ZM217.63 81.312L212.853 76.1946L217.63 81.312ZM220.413 78.912L216.345 73.2159L216.215 73.3089L216.089 73.4078L220.413 78.912ZM224.35 76.608L221.313 70.301L221.219 70.346L221.127 70.3937L224.35 76.608ZM234.046 72.096L231.416 65.6088L231.308 65.6523L231.203 65.6993L234.046 72.096ZM239.613 69.696L242.623 76.016L244.776 74.9906L245.856 72.8637L239.613 69.696ZM249.021 49.44L255.418 52.283L243.334 45.3593L249.021 49.44ZM223.197 50.4L216.894 47.3568L223.197 50.4ZM231.837 36L226.269 31.7577H226.269L231.837 36ZM242.109 31.776L237.413 36.9667L242.109 31.776ZM243.837 35.904L238.888 30.9542L238.619 31.2234L238.38 31.5202L243.837 35.904ZM235.102 49.056L228.975 45.6702L228.958 45.7012L228.941 45.7325L235.102 49.056ZM242.973 50.88L237.655 46.3287L237.651 46.333L242.973 50.88ZM257.085 31.968L263.025 35.6722L263.109 35.5379L263.187 35.3998L257.085 31.968ZM264.382 31.776L260.623 37.6816L260.682 37.7191L260.742 37.7554L264.382 31.776ZM266.013 35.712L261.064 30.7622L260.5 31.326L260.078 32.002L266.013 35.712ZM260.062 47.808L266.408 50.7613L266.414 50.7494L266.419 50.7374L260.062 47.808ZM252.861 62.784L246.623 59.6082L235.286 81.8786L256.542 68.7382L252.861 62.784ZM270.333 47.712L266.732 41.7095L265.67 42.3466L264.891 43.3094L270.333 47.712ZM236.35 75.744L242.424 79.2222L252.925 60.8826L233.552 69.3271L236.35 75.744ZM230.686 78.336L227.555 72.075L230.686 78.336ZM226.557 80.544L223.113 74.4501L223.015 74.5058L222.918 74.5646L226.557 80.544ZM223.389 82.944L218.21 78.2353L217.988 78.4797L217.79 78.744L223.389 82.944ZM271.198 54.424C269.87 54.424 268.691 53.9524 267.833 53.2965C267.077 52.718 266.745 52.1374 266.666 51.9907L278.993 45.3533C277.969 43.4515 275.535 40.424 271.198 40.424V54.424ZM267.005 52.5549C266.919 52.4251 266.177 51.2337 266.541 49.4112L280.27 52.1568C280.89 49.0543 279.764 46.4549 278.654 44.7891L267.005 52.5549ZM267.883 46.483C263.038 52.7046 255.81 58.4518 245.831 63.5613L252.212 76.0227C263.481 70.2522 272.509 63.3274 278.928 55.085L267.883 46.483ZM242.935 66.3343C238.425 74.2738 234.335 79.793 230.737 83.2437C227.088 86.7425 224.644 87.464 223.294 87.464V101.464C229.751 101.464 235.499 98.0735 240.426 93.3484C245.404 88.575 250.274 81.7582 255.108 73.2497L242.935 66.3343ZM223.294 87.464C222.215 87.464 221.975 87.2013 221.951 87.18L212.732 97.716C215.78 100.383 219.508 101.464 223.294 101.464V87.464ZM221.823 87.0704C221.827 87.0743 221.864 87.1064 221.912 87.1699C221.961 87.2343 222.001 87.3043 222.029 87.3684C222.057 87.4309 222.06 87.46 222.056 87.4381C222.051 87.4138 222.038 87.3285 222.038 87.168H208.038C208.038 91.2039 209.524 95.0453 212.86 97.8255L221.823 87.0704ZM222.038 87.168C222.038 86.9233 222.077 86.7862 222.113 86.6957L209.114 81.4963C208.382 83.3258 208.038 85.2367 208.038 87.168H222.038ZM222.113 86.6957C222.026 86.9132 222.002 86.8066 222.406 86.4294L212.853 76.1946C211.337 77.6094 209.969 79.3588 209.114 81.4963L222.113 86.6957ZM222.406 86.4294C223.242 85.6488 224.019 84.981 224.738 84.4162L216.089 73.4078C215.016 74.251 213.937 75.1832 212.853 76.1946L222.406 86.4294ZM224.482 84.6081C224.979 84.253 225.951 83.6625 227.572 82.8223L221.127 70.3937C219.292 71.3455 217.64 72.291 216.345 73.2159L224.482 84.6081ZM227.386 82.915C229.106 82.087 230.564 81.3898 231.762 80.8222L225.769 68.1698C224.535 68.7542 223.049 69.465 221.313 70.301L227.386 82.915ZM231.762 80.8222C232.901 80.2827 234.6 79.5098 236.888 78.4927L231.203 65.6993C228.883 66.7302 227.062 67.5573 225.769 68.1698L231.762 80.8222ZM236.675 78.5832C239.095 77.6023 241.097 76.7427 242.623 76.016L236.604 63.376C235.442 63.9293 233.732 64.6697 231.416 65.6088L236.675 78.5832ZM245.856 72.8637C248.118 68.4064 251.314 61.5171 255.418 52.283L242.625 46.597C238.537 55.7949 235.461 62.4096 233.371 66.5283L245.856 72.8637ZM243.334 45.3593C238.36 52.2923 234.119 57.1612 230.613 60.2267C226.91 63.4653 224.986 63.848 224.542 63.848V77.848C230.177 77.848 235.373 74.6627 239.83 70.7653C244.484 66.6948 249.443 60.8597 254.709 53.5207L243.334 45.3593ZM224.542 63.848C224.374 63.848 224.552 63.8208 224.914 63.9742C225.32 64.1455 225.716 64.4422 226.006 64.809C226.268 65.1417 226.303 65.3538 226.271 65.2341C226.237 65.1024 226.165 64.7308 226.165 64.032H212.165C212.165 67.0347 212.726 70.5786 215.013 73.479C217.551 76.6959 221.17 77.848 224.542 77.848V63.848ZM226.165 64.032C226.165 62.0835 226.975 58.6765 229.501 53.4432L216.894 47.3568C214.044 53.2596 212.165 58.9405 212.165 64.032H226.165ZM229.501 53.4432C232.028 48.21 234.672 43.8294 237.406 40.2423L226.269 31.7577C222.859 36.2346 219.743 41.454 216.894 47.3568L229.501 53.4432ZM237.406 40.2423C238.849 38.3477 239.883 37.1855 240.545 36.5636C240.879 36.2497 240.95 36.2333 240.785 36.3324C240.691 36.3889 240.448 36.5263 240.071 36.6575C239.697 36.7878 239.075 36.952 238.27 36.952V22.952C236.143 22.952 234.49 23.7829 233.582 24.3275C232.577 24.9307 231.692 25.6703 230.954 26.3644C229.472 27.7585 227.898 29.6203 226.269 31.7577L237.406 40.2423ZM238.27 36.952C237.68 36.952 237.282 36.7994 237.138 36.7309C237.018 36.6737 237.114 36.6958 237.413 36.9667L246.806 26.5852C244.791 24.7624 241.903 22.952 238.27 22.952V36.952ZM237.413 36.9667C237.782 37.3008 237.787 37.3789 237.666 37.1825C237.54 36.9782 237.126 36.2234 237.126 35.04H251.126C251.126 30.9327 248.436 28.0603 246.806 26.5852L237.413 36.9667ZM237.126 35.04C237.126 34.345 237.304 32.538 238.888 30.9542L248.787 40.8538C250.755 38.886 251.126 36.503 251.126 35.04H237.126ZM238.38 31.5202C234.967 35.769 231.836 40.4927 228.975 45.6702L241.228 52.4418C243.743 47.8913 246.436 43.847 249.295 40.2878L238.38 31.5202ZM228.941 45.7325C227.547 48.3169 226.41 50.6925 225.605 52.8116C224.85 54.8 224.165 57.1238 224.165 59.424H238.165C238.165 59.6762 238.137 59.248 238.694 57.7804C239.201 56.4435 240.032 54.6591 241.262 52.3795L228.941 45.7325ZM224.165 59.424C224.165 60.4939 224.318 62.5535 225.709 64.5007C227.41 66.8819 229.966 67.768 232.126 67.768V53.768C232.779 53.768 233.686 53.8836 234.666 54.3407C235.682 54.8151 236.51 55.5344 237.102 56.3633C238.173 57.8625 238.165 59.2501 238.165 59.424H224.165ZM232.126 67.768C234.597 67.768 236.541 66.6374 237.443 66.0676C238.581 65.3481 239.7 64.4294 240.753 63.4694C242.879 61.5312 245.411 58.8035 248.296 55.427L237.651 46.333C234.904 49.5485 232.812 51.7648 231.322 53.1226C230.567 53.8106 230.13 54.1279 229.964 54.2324C229.562 54.4866 230.454 53.768 232.126 53.768V67.768ZM248.292 55.4313C254.162 48.5714 259.089 41.9842 263.025 35.6722L251.146 28.2637C247.658 33.8558 243.177 39.8766 237.655 46.3287L248.292 55.4313ZM263.187 35.3998C262.841 36.0139 262.257 36.6314 261.472 37.0363C260.75 37.4091 260.19 37.432 260.062 37.432V23.432C256.72 23.432 253.067 24.8337 250.984 28.5362L263.187 35.3998ZM260.062 37.432C260.075 37.432 260.103 37.4323 260.166 37.452C260.235 37.4736 260.387 37.5312 260.623 37.6816L268.14 25.8704C265.763 24.3579 263.037 23.432 260.062 23.432V37.432ZM260.742 37.7554C261.064 37.9516 260.876 37.9006 260.553 37.4938C260.175 37.0173 259.59 36.0007 259.59 34.56H273.59C273.59 29.7059 269.932 26.9599 268.021 25.7966L260.742 37.7554ZM259.59 34.56C259.59 32.4327 260.685 31.1412 261.064 30.7622L270.963 40.6617C272.11 39.5148 273.59 37.4553 273.59 34.56H259.59ZM260.078 32.002C258.829 33.9999 256.643 38.4998 253.704 44.8785L266.419 50.7374C269.496 44.0602 271.278 40.4961 271.949 39.422L260.078 32.002ZM253.715 44.8547C250.719 51.293 248.36 56.1979 246.623 59.6082L259.1 65.9598C260.947 62.3301 263.388 57.251 266.408 50.7613L253.715 44.8547ZM256.542 68.7382C264.167 64.0249 270.612 58.4972 275.776 52.1146L264.891 43.3094C260.839 48.3188 255.636 52.8391 249.181 56.8298L256.542 68.7382ZM273.935 53.7145C273.635 53.8946 272.663 54.424 271.198 54.424V40.424C269.22 40.424 267.672 41.1454 266.732 41.7095L273.935 53.7145ZM225.021 94.648C229.518 94.648 232.964 91.827 235.18 89.4975C237.628 86.9259 240.032 83.3998 242.424 79.2222L230.275 72.2658C228.123 76.0242 226.367 78.4501 225.039 79.8465C223.479 81.485 223.533 80.648 225.021 80.648V94.648ZM233.552 69.3271C231.025 70.4289 229.002 71.3513 227.555 72.075L233.816 84.597C234.929 84.0407 236.682 83.2351 239.147 82.1609L233.552 69.3271ZM227.555 72.075C226.152 72.7765 224.67 73.5698 223.113 74.4501L230.002 86.6379C231.389 85.8542 232.659 85.1755 233.816 84.597L227.555 72.075ZM222.918 74.5646C221.257 75.5754 219.525 76.7883 218.21 78.2353L228.569 87.6527C228.511 87.7164 228.581 87.6283 228.889 87.3956C229.181 87.1738 229.607 86.8826 230.197 86.5234L222.918 74.5646ZM217.79 78.744C216.45 80.5296 215.525 82.7716 215.525 85.344H229.525C229.525 85.7542 229.451 86.1475 229.328 86.491C229.208 86.8247 229.066 87.0416 228.99 87.144L217.79 78.744ZM215.525 85.344C215.525 87.3413 216.092 90.0842 218.402 92.2156C220.605 94.2493 223.243 94.648 225.021 94.648V80.648C225.136 80.648 226.526 80.6627 227.897 81.9284C229.375 83.2918 229.525 84.8827 229.525 85.344H215.525Z" fill="#FFE156" mask="url(#path-1-outside-1_62_112)"/>
</svg>
